<svg width="576" height="528" viewBox="0 0 576 528" fill="none" xmlns="http://www.w3.org/2000/svg">
<g clip-path="url(#clip0_434_648)">
<path d="M115.652 -230.402C27.2482 -211.31 -68.2227 -151.64 -131.617 -83.6653C-186.205 -25.134 -212.491 43.0237 -215.088 103.642C-218.099 173.971 -191.018 237.797 -135.795 275.148C-121.274 284.976 -107.455 294.76 -89.7817 301.419C-17.3116 328.744 70.5762 257.03 115.401 253.96C153.125 251.378 164.237 286.231 197.573 291.03C287.519 303.996 432.117 209.877 439.458 122.432C447.258 29.6675 334.609 -277.682 115.652 -230.402Z" fill="#087E8B"/>
<path opacity="0.8" d="M115.652 -230.402C27.2482 -211.31 -68.2227 -151.64 -131.617 -83.6653C-186.205 -25.134 -212.491 43.0237 -215.088 103.642C-218.099 173.971 -191.018 237.797 -135.795 275.148C-121.274 284.976 -107.455 294.76 -89.7817 301.419C-17.3116 328.744 70.5762 257.03 115.401 253.96C153.125 251.378 164.237 286.231 197.573 291.03C287.519 303.996 432.117 209.877 439.458 122.432C447.258 29.6675 334.609 -277.682 115.652 -230.402Z" fill="white"/>
</g>
<defs>
<clipPath id="clip0_434_648">
<rect width="582.278" height="761.591" fill="white" transform="translate(-61.897 527.77) rotate(-123.114)"/>
</clipPath>
</defs>
</svg>
