<svg width="399" height="496" viewBox="0 0 399 496" fill="none" xmlns="http://www.w3.org/2000/svg">
<path d="M670.839 506.297C711.117 430.317 713.832 329.074 686.027 247.915C662.083 178.032 608.809 124.739 547.273 92.9956C475.879 56.17 390.777 45.21 314.155 68.4589C294.001 74.5691 274.37 80.1724 255.378 90.2145C177.478 131.383 192.506 232.832 165.18 268.109C142.18 297.797 98.2134 289.043 70.4947 311.798C-4.31229 373.188 -4.51557 528.368 81.8058 576.866C173.369 628.323 571.072 694.48 670.839 506.297Z" fill="#087E8B"/>
<path opacity="0.8" d="M670.839 506.297C711.117 430.317 713.832 329.074 686.027 247.915C662.083 178.032 608.809 124.739 547.273 92.9956C475.879 56.17 390.777 45.21 314.155 68.4589C294.001 74.5691 274.37 80.1724 255.378 90.2145C177.478 131.383 192.506 232.832 165.18 268.109C142.18 297.797 98.2134 289.043 70.4947 311.798C-4.31229 373.188 -4.51557 528.368 81.8058 576.866C173.369 628.323 571.072 694.48 670.839 506.297Z" fill="white"/>
</svg>
