<svg width="184" height="399" viewBox="0 0 184 399" fill="none" xmlns="http://www.w3.org/2000/svg">
<path d="M116.011 112.91C117.885 95.5354 118.727 86.3972 112.486 76.3753C106.245 66.3534 104.645 9.40332 64.3424 18.8066C55.5047 20.8746 42.9014 22.7129 47.9393 52.0363C52.9771 81.3597 36.7803 76.7818 46.2199 91.9119C55.6594 107.042 30.7451 124.417 43.2281 140.943C55.711 157.47 32.774 169.118 41.096 177.319C44.3061 175.809 47.6019 174.498 50.9654 173.395C50.1573 171.928 49.6415 169.348 51.2577 165C54.2495 156.957 59.2358 147.218 53.2522 138.062C53.2522 138.062 61.4023 140.873 57.6539 159.273C56.4332 165.318 56.5191 169.083 57.1897 171.416C60.1299 170.638 63.3624 169.913 66.784 169.348C65.6705 167.399 65.1496 165.152 65.2881 162.896C65.7352 156.18 68.5722 153.44 68.2283 148.049C68.2283 148.049 71.2373 155.844 69.7242 160.634C69.3086 161.988 69.1826 163.419 69.3547 164.829C69.5268 166.238 69.993 167.593 70.7215 168.8C79.6967 167.59 88.82 168.374 97.4755 171.098C123.662 179.935 131.021 156.745 131.021 156.745C131.021 156.745 114.188 130.267 116.011 112.91Z" fill="#263238"/>
<path d="M115.392 96.0127L115.254 97.0025L115.117 98.3458C115.117 99.2472 114.979 100.113 114.979 101.103C114.941 102.971 115.051 104.839 115.306 106.689C116.03 112.223 118.179 117.459 121.53 121.854C122.08 122.614 122.699 123.321 123.25 124.046L124.212 125.089L125.072 126.096C126.008 127.208 127.044 128.226 128.167 129.136C128.551 129.453 128.959 129.737 129.388 129.985C129.596 130.1 129.815 130.195 130.041 130.268L130.402 130.356H130.557C130.557 130.356 130.557 130.356 130.557 130.515C130.881 130.121 131.28 129.799 131.73 129.569C132.179 129.339 132.67 129.206 133.171 129.179C133.672 129.151 134.174 129.229 134.645 129.408C135.116 129.587 135.546 129.863 135.909 130.22C136.272 130.576 136.561 131.005 136.756 131.48C136.952 131.956 137.051 132.467 137.048 132.983C137.044 133.499 136.938 134.009 136.735 134.481C136.533 134.954 136.238 135.378 135.87 135.729L135.234 136.489C135.062 136.701 134.89 136.878 134.718 137.055C134.361 137.386 133.988 137.699 133.6 137.992C132.811 138.539 131.955 138.979 131.056 139.3C129.301 139.894 127.44 140.087 125.605 139.865C122.493 139.421 119.523 138.248 116.922 136.436C116.338 136.03 115.77 135.623 115.203 135.199L113.724 133.856C112.778 132.937 111.816 132.088 110.921 130.992C109.121 128.959 107.509 126.758 106.107 124.417C103.296 119.678 101.399 114.427 100.519 108.951C100.078 106.247 99.8767 103.508 99.9172 100.767C99.9352 99.3851 100.021 98.0046 100.175 96.6313C100.175 95.9419 100.33 95.2526 100.45 94.5456L100.657 93.4497L100.777 92.8841L100.949 92.1418C101.384 90.2372 102.518 88.5792 104.115 87.5142C105.711 86.4493 107.646 86.0598 109.515 86.4273C111.384 86.7947 113.043 87.8905 114.145 89.4858C115.246 91.0811 115.705 93.0523 115.426 94.9875L115.392 96.0127Z" fill="#B55B52"/>
<path d="M142.008 127.545L141.509 130.78C141.416 131.379 141.184 131.947 140.834 132.435C140.484 132.924 140.026 133.32 139.498 133.59L134.477 136.153C133.49 136.663 132.399 136.922 131.294 136.906C130.19 136.891 129.105 136.602 128.132 136.065L126.912 135.393C127.393 129.967 131.778 124.452 131.778 124.452L132.861 122.685C133.075 122.327 133.356 122.016 133.688 121.771C134.02 121.526 134.396 121.35 134.794 121.255C135.192 121.16 135.604 121.146 136.007 121.216C136.41 121.285 136.796 121.436 137.142 121.659L140.461 123.816C141.046 124.213 141.505 124.778 141.78 125.442C142.055 126.105 142.134 126.836 142.008 127.545Z" fill="#B55B52"/>
<path d="M104.233 81.5541C114.291 82.3319 119.106 89.8085 123.851 106.865C120.292 112.645 105.935 116.958 105.935 116.958C105.935 116.958 96.547 91.6998 104.233 81.5541Z" fill="#087E8B"/>
<path opacity="0.7" d="M104.233 81.5541C114.291 82.3319 119.106 89.8085 123.851 106.865C120.292 112.645 105.935 116.958 105.935 116.958C105.935 116.958 96.547 91.6998 104.233 81.5541Z" fill="white"/>
<path d="M181.434 407.187C172.682 409.609 171.496 409.786 166.544 410.988C162.297 411.995 161.386 412.755 158.033 413.674C155.179 414.399 154.594 411.589 154.594 408.142C154.594 406.374 154.388 402.839 154.302 400.082L166.871 395.575C169.605 398.615 174.986 402.521 180.093 401.832C185.2 401.142 184.924 406.215 181.434 407.187Z" fill="#263238"/>
<path d="M93.1942 173.714C86.4197 200.898 82.0868 199.643 116.441 283.407C108.377 325.563 153.838 399.446 153.838 399.446C158.205 399.622 165.874 398.42 167.593 396.635C159.753 372.438 144.639 311.935 140.392 272.802C136.369 235.524 129.835 187.111 126.207 158.566C125.829 155.72 124.797 147.165 124.797 147.165L94.7417 155.331C94.7417 155.331 94.2946 169.242 93.1942 173.714Z" fill="#087E8B"/>
<g opacity="0.3">
<path d="M93.1942 173.714C86.4197 200.898 82.0868 199.643 116.441 283.407C108.377 325.563 153.838 399.446 153.838 399.446C158.205 399.622 165.874 398.42 167.593 396.635C159.753 372.438 144.639 311.935 140.392 272.802C136.369 235.524 129.835 187.111 126.207 158.566C125.829 155.72 124.797 147.165 124.797 147.165L94.7417 155.331C94.7417 155.331 94.2946 169.242 93.1942 173.714Z" fill="black"/>
</g>
<path opacity="0.2" d="M90.8042 213.872C93.8304 226.033 100.261 243.549 112.056 272.678C117.558 224.795 107.414 194.394 107.414 194.394H93.6584L90.8042 213.872Z" fill="black"/>
<path d="M165.358 386.083C166.183 388.204 167.679 391.881 169.072 394.585C169.331 394.959 169.455 395.414 169.424 395.872C169.392 396.329 169.207 396.762 168.9 397.095C163.982 400.63 155.385 401.655 152.634 401.903C152.31 401.873 152 401.749 151.741 401.546C151.483 401.343 151.285 401.068 151.173 400.754L147.356 392.924C146.84 391.845 147.029 390.643 147.734 390.378L163.604 384.775C164.154 384.545 164.98 385.111 165.358 386.083Z" fill="#087E8B"/>
<path d="M11.1266 385.8C7.85872 379.412 5.32008 372.656 3.56118 365.668C2.32321 361.444 1.60106 362.133 0.122363 357.909C-0.0335846 357.262 -0.040568 356.587 0.101977 355.938C0.244522 355.288 0.532651 354.682 0.943422 354.167C1.35419 353.652 1.87625 353.242 2.46803 352.972C3.05981 352.701 3.70496 352.575 4.3521 352.606C6.69542 352.911 9.0615 352.988 11.4189 352.836L18.0042 362.133C15.0984 365.668 13.379 378.165 16.2848 384.492C18.2278 389.07 12.846 389 11.1266 385.8Z" fill="#263238"/>
<path d="M109.133 181.614C109.133 181.614 110.337 262.621 104.938 290.283C99.6421 317.326 16.5774 363.936 16.5774 363.936C14.7204 364.572 11.1268 354.639 11.4191 352.465C36.4022 327.454 60.3536 285.952 79.1812 280.225C60.6115 211.892 64.3426 198.919 76.3957 175.817C79.1468 170.514 77.84 158.566 77.84 158.566L109.322 155.331L109.133 181.614Z" fill="#087E8B"/>
<g opacity="0.3">
<path d="M109.133 181.614C109.133 181.614 110.337 262.621 104.938 290.283C99.6421 317.326 16.5774 363.936 16.5774 363.936C14.7204 364.572 11.1268 354.639 11.4191 352.465C36.4022 327.454 60.3536 285.952 79.1812 280.225C60.6115 211.892 64.3426 198.919 76.3957 175.817C79.1468 170.514 77.84 158.566 77.84 158.566L109.322 155.331L109.133 181.614Z" fill="black"/>
</g>
<path d="M26.6872 358.739C24.7615 360.153 21.3226 362.663 18.8295 364.572C18.0042 365.208 17.1101 365.35 16.5771 364.943C13.3446 361.797 10.3872 355.257 9.45869 353.083C9.28675 352.659 9.56186 352.005 10.1637 351.475L16.663 345.783C17.5571 345.005 18.7607 344.793 19.1562 345.341L27.5469 356.83C27.8908 357.307 27.5297 358.138 26.6872 358.739Z" fill="#087E8B"/>
<path d="M119.449 98.77C120.964 105.433 122.033 112.195 122.648 119.008C123.8 128.924 124.642 138.734 125.742 155.119L77.4614 162.985C76.275 148.844 72.3031 133.166 58.7198 103.118C57.9359 101.544 57.5087 99.8081 57.4701 98.0402C57.4316 96.2723 57.7828 94.5183 58.4973 92.9098C59.2119 91.3012 60.2713 89.8798 61.5962 88.7519C62.9211 87.6241 64.4771 86.819 66.1477 86.3972C68.0218 85.8846 70.0335 85.3897 72.0968 84.9478C79.3148 83.243 86.6403 82.0618 94.0193 81.4128C96.4265 81.2537 98.954 81.1653 101.361 81.1123C110.01 80.9885 117.885 90.0383 119.449 98.77Z" fill="#087E8B"/>
<path d="M69.5864 59.3893C72.6126 66.3358 76.9971 79.2388 73.1628 84.8242C73.1628 84.8242 79.6794 82.7032 95.2572 89.4198C98.4381 82.7032 95.0853 81.2538 95.0853 81.2538C86.7805 80.6351 85.6285 74.6785 85.7145 68.881L69.5864 59.3893Z" fill="#B55B52"/>
<path d="M92.0597 88.1648C87.5033 89.5965 87.1594 97.0024 87.1594 97.0024C87.1594 97.0024 74.6764 90.6747 70.2231 85.4958C71.5115 84.4496 72.7454 83.3345 73.9199 82.1552C73.9199 82.1552 88.9132 85.7609 92.0597 88.1648Z" fill="white"/>
<path d="M96.3922 86.5917C96.3922 86.5917 100.588 87.0512 102.96 92.6543C102.393 81.9077 97.3207 80.8825 97.3207 80.8825C95.9253 80.3362 94.3832 80.3362 92.9878 80.8825C94.1189 81.2688 95.0809 82.0536 95.7038 83.0982C96.3268 84.1429 96.5706 85.3802 96.3922 86.5917Z" fill="white"/>
<path opacity="0.2" d="M76.2236 63.26L85.7836 68.8808C85.737 70.2401 85.8118 71.6009 86.0071 72.9461C82.9121 72.9461 78.0118 70.3125 76.963 67.1663C76.4932 65.9195 76.2429 64.5969 76.2236 63.26Z" fill="black"/>
<path d="M62.0039 45.903C65.8898 57.0738 67.2997 61.8108 74.5384 66.3534C85.4223 73.0877 97.9396 66.5478 97.3894 54.617C96.908 43.8703 90.6493 27.4145 78.4759 25.4879C75.8899 24.9935 73.2223 25.218 70.749 26.1381C68.2756 27.0583 66.0862 28.6408 64.4069 30.722C62.7277 32.8032 61.6196 35.3077 61.1971 37.9766C60.7747 40.6454 61.0532 43.3818 62.0039 45.903Z" fill="#B55B52"/>
<path d="M85.6807 44.8248C87.1695 46.8145 88.9034 48.597 90.8389 50.1274C90.4646 50.5898 89.9932 50.9589 89.4601 51.2069C88.927 51.4549 88.3461 51.5753 87.7612 51.5591L85.6807 44.8248Z" fill="#A02724"/>
<path d="M84.4082 57.1445C84.9379 57.0863 85.4615 56.9799 85.9728 56.8263C86.0079 56.8165 86.0405 56.7992 86.0685 56.7756C86.0966 56.7519 86.1195 56.7224 86.1357 56.6891C86.1519 56.6557 86.1611 56.6192 86.1627 56.5819C86.1643 56.5447 86.1582 56.5075 86.1448 56.4728C86.1177 56.4009 86.0662 56.3416 85.9998 56.3058C85.9334 56.2701 85.8566 56.2603 85.7837 56.2784C84.6241 56.6306 83.4014 56.7054 82.2094 56.4971C81.0173 56.2887 79.8873 55.8028 78.9061 55.0764C78.8521 55.0255 78.7816 54.9973 78.7083 54.9973C78.6351 54.9973 78.5645 55.0255 78.5106 55.0764C78.4841 55.1028 78.463 55.1344 78.4486 55.1693C78.4342 55.2042 78.4268 55.2418 78.4268 55.2797C78.4268 55.3176 78.4342 55.3552 78.4486 55.3901C78.463 55.425 78.4841 55.4566 78.5106 55.483C80.2076 56.7703 82.3098 57.3625 84.4082 57.1445Z" fill="#263238"/>
<path d="M77.4615 46.1857C77.7882 47.1225 78.5447 47.7411 79.1809 47.582C79.8171 47.4229 79.989 46.5038 79.6623 45.567C79.3357 44.6302 78.5963 44.0116 77.9429 44.1707C77.2896 44.3298 77.1348 45.2489 77.4615 46.1857Z" fill="#263238"/>
<path d="M88.8954 42.474C89.2221 43.4108 89.9786 44.0294 90.6148 43.8526C91.251 43.6759 91.4229 42.7745 91.0962 41.8377C90.7695 40.9009 90.0302 40.2822 89.3768 40.459C88.7234 40.6357 88.4999 41.5372 88.8954 42.474Z" fill="#263238"/>
<path d="M89.1362 40.5827L91.0964 39.3101C91.0964 39.3101 90.5805 41.3781 89.1362 40.5827Z" fill="#263238"/>
<path d="M74.1948 41.1837C74.2623 41.1574 74.3225 41.1148 74.3704 41.0594C74.4183 41.004 74.4525 40.9375 74.4699 40.8656C74.6517 40.1846 74.9927 39.5596 75.4632 39.0452C75.9337 38.5307 76.5195 38.1423 77.1694 37.9138C77.2389 37.8958 77.304 37.8632 77.3605 37.8179C77.4171 37.7727 77.4638 37.7158 77.4978 37.6509C77.5318 37.5861 77.5522 37.5147 77.5578 37.4412C77.5635 37.3678 77.5542 37.294 77.5305 37.2244C77.4831 37.0757 77.3811 36.9519 77.2463 36.8793C77.1114 36.8067 76.9543 36.791 76.8084 36.8356C75.9807 37.1019 75.2318 37.5783 74.6307 38.2209C74.0297 38.8635 73.5959 39.6515 73.3695 40.5121C73.3325 40.6597 73.3532 40.8163 73.4271 40.9484C73.501 41.0806 73.6223 41.1777 73.765 41.2191C73.9076 41.2623 74.0607 41.2497 74.1948 41.1837Z" fill="#263238"/>
<path d="M91.5262 36.2169C91.5977 36.216 91.6683 36.1998 91.7334 36.1694C91.7985 36.139 91.8568 36.0949 91.9044 36.0401C92.0074 35.9313 92.065 35.7854 92.065 35.6336C92.065 35.4818 92.0074 35.3359 91.9044 35.2271C91.2338 34.5944 90.4309 34.1283 89.5575 33.8648C88.6841 33.6013 87.7635 33.5473 86.8666 33.707C86.7971 33.725 86.732 33.7576 86.6755 33.8029C86.6189 33.8481 86.5722 33.905 86.5382 33.9698C86.5043 34.0347 86.4838 34.1061 86.4782 34.1795C86.4725 34.253 86.4818 34.3268 86.5055 34.3963C86.5495 34.5452 86.6466 34.6716 86.7773 34.7502C86.9079 34.8288 87.0626 34.854 87.2105 34.8205C87.9244 34.7075 88.6539 34.7616 89.3446 34.9789C90.0353 35.1962 90.6694 35.5711 91.1995 36.0755C91.2902 36.1584 91.4051 36.2081 91.5262 36.2169Z" fill="#263238"/>
<path d="M77.7021 44.3121L79.6623 43.0219C79.6623 43.0219 79.1465 45.1075 77.7021 44.3121Z" fill="#263238"/>
<path d="M74.4872 27.0434C76.4856 28.3363 78.098 30.1713 79.1468 32.346C80.276 31.8437 81.479 31.539 82.706 31.4446C81.3621 29.0459 79.1592 27.2825 76.5677 26.5308C78.2781 26.6216 79.9446 27.119 81.4364 27.9839C82.9281 28.8488 84.2043 30.0576 85.1648 31.5153C87.3337 31.8384 89.4261 32.5694 91.3374 33.6716C91.3374 33.6716 80.402 15.3423 65.3743 23.5613C50.3467 31.7804 62.0387 53.8392 62.0387 53.8392H65.0305C65.0305 53.8392 71.9081 53.5211 64.3427 39.1157C64.3427 39.1157 69.6041 41.0423 69.8964 45.196C69.8964 45.196 71.8393 37.4718 77.1179 33.5833C76.8095 31.2051 75.9027 28.9509 74.4872 27.0434Z" fill="#263238"/>
<path d="M61.7461 52.0009C61.7461 52.0009 43.8471 36.3052 64.9958 21.3872C64.9958 21.3872 48.8506 21.0514 49.1773 6.16871L68.3143 18.0466L80.7284 0C80.7284 0 87.6061 9.75682 71.9595 19.8495C71.9595 19.8495 79.8 16.4381 85.8351 24.8339C85.8351 24.8339 76.3955 18.7712 67.5062 24.3567C51.1718 34.626 61.7461 52.0009 61.7461 52.0009Z" fill="#087E8B"/>
<path d="M60.3362 56.6495C62.0713 58.4915 64.445 59.5527 66.9388 59.6013C70.1197 59.6013 70.6355 56.2076 68.8473 53.3796C67.2311 50.852 63.6891 47.8118 60.852 49.1905C58.015 50.5692 58.1182 54.334 60.3362 56.6495Z" fill="#B55B52"/>
<path d="M107.414 106.688L97.9052 92.1947C97.9052 92.1947 104.422 98.5755 105.763 95.3939C106.881 92.7073 99.0572 90.5862 96.5297 89.9676C96.2962 89.9143 96.0534 89.9238 95.8245 89.995C95.5957 90.0662 95.3885 90.1967 95.2229 90.3741C93.0393 92.7603 85.216 101.845 90.0647 105.204C95.7216 109.075 95.2229 91.8588 95.2229 91.8588L97.3378 110.559L99.659 111.019L96.6157 92.5305L106.21 108.845L107.414 106.688ZM104.594 94.8813C103.992 96.0126 99.4355 91.8588 99.4355 91.8588C99.4355 91.8588 105.264 93.7324 104.645 94.8813H104.594ZM90.6665 103.366C88.2765 100.573 94.1053 93.3436 94.1053 93.3436C94.1053 93.3436 93.1081 106.158 90.7181 103.366H90.6665Z" fill="#263238"/>
<path d="M164.532 107.007H108.342V119.044H164.549C164.045 115.049 164.039 111.003 164.532 107.007Z" fill="#087E8B"/>
<path opacity="0.7" d="M164.532 107.007H108.342V119.044H164.549C164.045 115.049 164.039 111.003 164.532 107.007Z" fill="white"/>
<path d="M118.573 119.68H100.914L100.742 119.503C99.9037 118.644 99.2384 117.624 98.7844 116.5C98.3304 115.376 98.0967 114.171 98.0967 112.954C98.0967 111.738 98.3304 110.533 98.7844 109.409C99.2384 108.285 99.9037 107.264 100.742 106.406L100.914 106.229H118.573L117.524 107.307C116.072 108.807 115.256 110.838 115.256 112.954C115.256 115.071 116.072 117.101 117.524 118.602L118.573 119.68Z" fill="#087E8B"/>
<g opacity="0.3">
<path d="M118.573 119.68H100.914L100.742 119.503C99.9037 118.644 99.2384 117.624 98.7844 116.5C98.3304 115.376 98.0967 114.171 98.0967 112.954C98.0967 111.738 98.3304 110.533 98.7844 109.409C99.2384 108.285 99.9037 107.264 100.742 106.406L100.914 106.229H118.573L117.524 107.307C116.072 108.807 115.256 110.838 115.256 112.954C115.256 115.071 116.072 117.101 117.524 118.602L118.573 119.68Z" fill="black"/>
</g>
<path d="M165.1 119.68H117.403C115.732 118.003 114.748 115.733 114.652 113.334C114.602 112.063 114.81 110.795 115.263 109.612C115.716 108.428 116.404 107.354 117.283 106.459L117.455 106.282H165.151C165.313 106.282 165.468 106.346 165.583 106.462C165.699 106.578 165.766 106.735 165.77 106.901C165.77 107.069 165.705 107.231 165.589 107.35C165.473 107.47 165.316 107.537 165.151 107.537H117.919C116.573 109.022 115.824 110.977 115.824 113.007C115.824 115.038 116.573 116.993 117.919 118.478H165.1C165.261 118.478 165.416 118.542 165.532 118.658C165.647 118.774 165.714 118.931 165.719 119.097C165.706 119.256 165.635 119.405 165.52 119.513C165.406 119.621 165.255 119.68 165.1 119.68Z" fill="#087E8B"/>
<path d="M160.715 82.6855H110.147V93.4675H160.715C160.266 89.8883 160.266 86.2646 160.715 82.6855Z" fill="#087E8B"/>
<path opacity="0.8" d="M160.715 82.6855H110.147V93.4675H160.715C160.266 89.8883 160.266 86.2646 160.715 82.6855Z" fill="white"/>
<path d="M119.45 94.1036H103.459L103.304 93.9445C101.785 92.3803 100.932 90.2602 100.932 88.0498C100.932 85.8393 101.785 83.7192 103.304 82.155L103.459 81.9783H119.45L118.504 82.9504C117.851 83.6174 117.333 84.4105 116.979 85.2841C116.626 86.1578 116.443 87.0947 116.443 88.0409C116.443 88.9872 116.626 89.9241 116.979 90.7977C117.333 91.6714 117.851 92.4645 118.504 93.1314L119.45 94.1036Z" fill="#263238"/>
<path d="M161.231 94.1035H118.246C116.742 92.5935 115.851 90.5532 115.753 88.3944C115.713 87.251 115.904 86.1115 116.312 85.0471C116.72 83.9827 117.338 83.0162 118.125 82.208L118.28 82.0313H161.265C161.339 82.0312 161.412 82.0464 161.48 82.0759C161.548 82.1055 161.609 82.1487 161.661 82.2031C161.712 82.2575 161.752 82.322 161.779 82.3927C161.805 82.4633 161.818 82.5388 161.816 82.6145C161.816 82.7646 161.758 82.9084 161.654 83.0145C161.551 83.1206 161.411 83.1801 161.265 83.1801H118.762C117.545 84.5108 116.868 86.2681 116.868 88.0939C116.868 89.9198 117.545 91.677 118.762 93.0077H161.231C161.305 93.0076 161.378 93.0228 161.446 93.0523C161.514 93.0819 161.575 93.1251 161.626 93.1795C161.678 93.2339 161.718 93.2984 161.744 93.3691C161.771 93.4397 161.784 93.5152 161.781 93.591C161.768 93.7316 161.705 93.8622 161.603 93.957C161.501 94.0519 161.368 94.1042 161.231 94.1035Z" fill="#087E8B"/>
<g opacity="0.4">
<path d="M161.231 94.1035H118.246C116.742 92.5935 115.851 90.5532 115.753 88.3944C115.713 87.251 115.904 86.1115 116.312 85.0471C116.72 83.9827 117.338 83.0162 118.125 82.208L118.28 82.0313H161.265C161.339 82.0312 161.412 82.0464 161.48 82.0759C161.548 82.1055 161.609 82.1487 161.661 82.2031C161.712 82.2575 161.752 82.322 161.779 82.3927C161.805 82.4633 161.818 82.5388 161.816 82.6145C161.816 82.7646 161.758 82.9084 161.654 83.0145C161.551 83.1206 161.411 83.1801 161.265 83.1801H118.762C117.545 84.5108 116.868 86.2681 116.868 88.0939C116.868 89.9198 117.545 91.677 118.762 93.0077H161.231C161.305 93.0076 161.378 93.0228 161.446 93.0523C161.514 93.0819 161.575 93.1251 161.626 93.1795C161.678 93.2339 161.718 93.2984 161.744 93.3691C161.771 93.4397 161.784 93.5152 161.781 93.591C161.768 93.7316 161.705 93.8622 161.603 93.957C161.501 94.0519 161.368 94.1042 161.231 94.1035Z" fill="white"/>
</g>
<path d="M160.715 70.5778H110.147V81.4127H160.715C160.26 77.8163 160.26 74.1742 160.715 70.5778Z" fill="#087E8B"/>
<path opacity="0.8" d="M160.715 70.5778H110.147V81.4127H160.715C160.26 77.8163 160.26 74.1742 160.715 70.5778Z" fill="white"/>
<path d="M119.45 81.9784H103.459L103.304 81.8193C101.785 80.2551 100.932 78.135 100.932 75.9245C100.932 73.7141 101.785 71.594 103.304 70.0298L103.459 69.8707H119.45L118.504 70.8429C117.841 71.5021 117.314 72.2918 116.954 73.1648C116.594 74.0378 116.408 74.9763 116.408 75.9245C116.408 76.8728 116.594 77.8113 116.954 78.6843C117.314 79.5573 117.841 80.3469 118.504 81.0062L119.45 81.9784Z" fill="#087E8B"/>
<g opacity="0.4">
<path d="M119.45 81.9784H103.459L103.304 81.8193C101.785 80.2551 100.932 78.135 100.932 75.9245C100.932 73.7141 101.785 71.594 103.304 70.0298L103.459 69.8707H119.45L118.504 70.8429C117.841 71.5021 117.314 72.2918 116.954 73.1648C116.594 74.0378 116.408 74.9763 116.408 75.9245C116.408 76.8728 116.594 77.8113 116.954 78.6843C117.314 79.5573 117.841 80.3469 118.504 81.0062L119.45 81.9784Z" fill="white"/>
</g>
<path d="M161.231 81.9783H118.246C116.745 80.4588 115.855 78.4145 115.753 76.2515C115.713 75.1081 115.904 73.9686 116.312 72.9042C116.72 71.8398 117.338 70.8733 118.125 70.0651L118.28 69.9061H161.265C161.411 69.9061 161.551 69.9657 161.654 70.0717C161.758 70.1778 161.816 70.3217 161.816 70.4717C161.816 70.6217 161.758 70.7656 161.654 70.8716C161.551 70.9777 161.411 71.0373 161.265 71.0373H118.762C117.548 72.3729 116.873 74.1323 116.873 75.9599C116.873 77.7875 117.548 79.5469 118.762 80.8825H161.231C161.377 80.8825 161.517 80.9421 161.62 81.0481C161.723 81.1542 161.781 81.2981 161.781 81.4481C161.772 81.5919 161.711 81.7268 161.608 81.8254C161.506 81.9239 161.371 81.9786 161.231 81.9783Z" fill="#087E8B"/>
<g opacity="0.5">
<path d="M161.231 81.9783H118.246C116.745 80.4588 115.855 78.4145 115.753 76.2515C115.713 75.1081 115.904 73.9686 116.312 72.9042C116.72 71.8398 117.338 70.8733 118.125 70.0651L118.28 69.9061H161.265C161.411 69.9061 161.551 69.9657 161.654 70.0717C161.758 70.1778 161.816 70.3217 161.816 70.4717C161.816 70.6217 161.758 70.7656 161.654 70.8716C161.551 70.9777 161.411 71.0373 161.265 71.0373H118.762C117.548 72.3729 116.873 74.1323 116.873 75.9599C116.873 77.7875 117.548 79.5469 118.762 80.8825H161.231C161.377 80.8825 161.517 80.9421 161.62 81.0481C161.723 81.1542 161.781 81.2981 161.781 81.4481C161.772 81.5919 161.711 81.7268 161.608 81.8254C161.506 81.9239 161.371 81.9786 161.231 81.9783Z" fill="white"/>
</g>
<path d="M160.715 120.458H110.147V131.311H160.715C160.26 127.708 160.26 124.06 160.715 120.458Z" fill="#087E8B"/>
<path opacity="0.8" d="M160.715 120.458H110.147V131.311H160.715C160.26 127.708 160.26 124.06 160.715 120.458Z" fill="white"/>
<path d="M119.45 131.876H103.459L103.304 131.717C101.785 130.153 100.932 128.033 100.932 125.822C100.932 123.612 101.785 121.492 103.304 119.927L103.459 119.751H119.45L118.504 120.74C117.841 121.4 117.314 122.189 116.954 123.062C116.594 123.935 116.408 124.874 116.408 125.822C116.408 126.77 116.594 127.709 116.954 128.582C117.314 129.455 117.841 130.244 118.504 130.904L119.45 131.876Z" fill="#263238"/>
<path d="M161.231 131.876H118.246C116.742 130.366 115.851 128.326 115.753 126.167C115.713 125.023 115.904 123.884 116.312 122.819C116.72 121.755 117.338 120.789 118.125 119.98L118.28 119.804H161.265C161.339 119.804 161.412 119.819 161.48 119.848C161.548 119.878 161.609 119.921 161.661 119.975C161.712 120.03 161.752 120.094 161.779 120.165C161.805 120.236 161.818 120.311 161.816 120.387C161.816 120.537 161.758 120.681 161.654 120.787C161.551 120.893 161.411 120.953 161.265 120.953H118.762C117.548 122.288 116.873 124.048 116.873 125.875C116.873 127.703 117.548 129.462 118.762 130.798H161.231C161.377 130.798 161.517 130.857 161.62 130.963C161.723 131.069 161.781 131.213 161.781 131.363C161.768 131.504 161.705 131.635 161.603 131.729C161.501 131.824 161.368 131.876 161.231 131.876Z" fill="#087E8B"/>
<path d="M160.715 94.8107H110.147V105.646H160.715C160.26 102.049 160.26 98.4071 160.715 94.8107Z" fill="#087E8B"/>
<path opacity="0.7" d="M160.715 94.8107H110.147V105.646H160.715C160.26 102.049 160.26 98.4071 160.715 94.8107Z" fill="white"/>
<path d="M119.45 106.229H103.459L103.304 106.052C101.785 104.488 100.932 102.368 100.932 100.158C100.932 97.9471 101.785 95.827 103.304 94.2628L103.459 94.1037H119.45L118.504 95.0758C117.841 95.7351 117.314 96.5247 116.954 97.3977C116.594 98.2707 116.408 99.2093 116.408 100.158C116.408 101.106 116.594 102.044 116.954 102.917C117.314 103.79 117.841 104.58 118.504 105.239L119.45 106.229Z" fill="#087E8B"/>
<g opacity="0.6">
<path d="M119.45 106.229H103.459L103.304 106.052C101.785 104.488 100.932 102.368 100.932 100.158C100.932 97.9471 101.785 95.827 103.304 94.2628L103.459 94.1037H119.45L118.504 95.0758C117.841 95.7351 117.314 96.5247 116.954 97.3977C116.594 98.2707 116.408 99.2093 116.408 100.158C116.408 101.106 116.594 102.044 116.954 102.917C117.314 103.79 117.841 104.58 118.504 105.239L119.45 106.229Z" fill="white"/>
</g>
<path d="M161.231 106.229H118.246C116.742 104.719 115.851 102.679 115.753 100.52C115.712 99.3736 115.902 98.231 116.31 97.1636C116.719 96.0961 117.337 95.1266 118.126 94.3157L118.28 94.1567H161.266C161.412 94.1567 161.552 94.2163 161.655 94.3223C161.758 94.4284 161.816 94.5723 161.816 94.7223C161.818 94.7981 161.806 94.8735 161.779 94.9442C161.752 95.0148 161.712 95.0793 161.661 95.1337C161.61 95.1881 161.548 95.2314 161.48 95.2609C161.412 95.2904 161.339 95.3056 161.266 95.3056H118.762C117.546 96.6363 116.869 98.3935 116.869 100.219C116.869 102.045 117.546 103.802 118.762 105.133H161.231C161.377 105.133 161.517 105.193 161.62 105.299C161.724 105.405 161.782 105.549 161.782 105.699C161.773 105.842 161.711 105.977 161.609 106.076C161.506 106.175 161.372 106.229 161.231 106.229Z" fill="#087E8B"/>
<g opacity="0.3">
<path d="M161.231 106.229H118.246C116.742 104.719 115.851 102.679 115.753 100.52C115.712 99.3736 115.902 98.231 116.31 97.1636C116.719 96.0961 117.337 95.1266 118.126 94.3157L118.28 94.1567H161.266C161.412 94.1567 161.552 94.2163 161.655 94.3223C161.758 94.4284 161.816 94.5723 161.816 94.7223C161.818 94.7981 161.806 94.8735 161.779 94.9442C161.752 95.0148 161.712 95.0793 161.661 95.1337C161.61 95.1881 161.548 95.2314 161.48 95.2609C161.412 95.2904 161.339 95.3056 161.266 95.3056H118.762C117.546 96.6363 116.869 98.3935 116.869 100.219C116.869 102.045 117.546 103.802 118.762 105.133H161.231C161.377 105.133 161.517 105.193 161.62 105.299C161.724 105.405 161.782 105.549 161.782 105.699C161.773 105.842 161.711 105.977 161.609 106.076C161.506 106.175 161.372 106.229 161.231 106.229Z" fill="white"/>
</g>
<path d="M125.932 120.952L122.373 120.139C121.711 119.989 121.024 120.004 120.369 120.182C119.714 120.36 119.11 120.697 118.607 121.165L113.844 125.566C112.893 126.444 112.163 127.546 111.717 128.777C111.271 130.008 111.122 131.332 111.282 132.636L111.454 134.262C117.283 136.03 124.831 133.52 124.831 133.52L127.049 133.06C127.51 132.977 127.949 132.801 128.343 132.543C128.737 132.284 129.077 131.948 129.344 131.554C129.611 131.159 129.799 130.714 129.898 130.245C129.997 129.776 130.005 129.291 129.921 128.818L129.078 124.275C128.928 123.466 128.55 122.719 127.991 122.128C127.431 121.537 126.715 121.128 125.932 120.952Z" fill="#B55B52"/>
<path d="M119.759 127.21C119.503 126.776 119.164 126.4 118.764 126.104C118.363 125.807 117.909 125.597 117.428 125.485C116.946 125.373 116.448 125.361 115.962 125.451C115.477 125.541 115.014 125.73 114.601 126.008H114.515C111.695 127.775 108.789 129.755 105.918 131.505C103.046 133.255 100.123 135.04 97.2175 136.578C94.4579 138.123 91.5831 139.441 88.6204 140.519C87.6057 140.891 86.5574 141.157 85.4911 141.315C84.2531 139.264 83.0495 137.143 81.9491 134.934C80.6251 132.141 79.37 129.295 78.218 126.361C77.066 123.427 76.0171 120.458 75.0371 117.524C74.5384 116.003 74.057 114.501 73.6099 112.981C73.1629 111.461 72.7158 109.87 72.3548 108.544V108.315C71.7879 106.454 70.5484 104.887 68.8916 103.938C67.2348 102.988 65.2869 102.728 63.449 103.21C61.611 103.693 60.0231 104.881 59.0121 106.531C58.0012 108.181 57.6443 110.167 58.0149 112.08C58.4619 114.024 58.8746 115.615 59.3904 117.382C59.9062 119.15 60.4221 120.793 60.9723 122.473C62.1071 125.813 63.3794 129.136 64.8066 132.389C66.2488 135.686 67.8616 138.901 69.6381 142.022C71.4746 145.211 73.5257 148.264 75.7764 151.16L75.9827 151.407C76.2093 151.708 76.4689 151.981 76.7565 152.22C78.3935 153.615 80.3879 154.492 82.4993 154.748C83.9938 154.943 85.5091 154.89 86.987 154.589C89.1946 154.146 91.3383 153.416 93.366 152.415C96.794 150.724 100.063 148.712 103.132 146.405C106.09 144.213 108.892 141.898 111.575 139.476C114.257 137.055 116.819 134.58 119.312 131.858C119.882 131.247 120.236 130.456 120.317 129.613C120.398 128.771 120.201 127.924 119.759 127.21Z" fill="#B55B52"/>
<path d="M62.3479 88.1647C54.0947 94.1566 53.7508 103.118 58.1525 120.263C64.1017 123.321 78.5791 119.45 78.5791 119.45C78.5791 119.45 74.0227 92.9017 62.3479 88.1647Z" fill="#087E8B"/>
<path opacity="0.7" d="M62.3479 88.1647C54.0947 94.1566 53.7508 103.118 58.1525 120.263C64.1017 123.321 78.5791 119.45 78.5791 119.45C78.5791 119.45 74.0227 92.9017 62.3479 88.1647Z" fill="white"/>
</svg>
