<svg width="442" height="404" viewBox="0 0 442 404" fill="none" xmlns="http://www.w3.org/2000/svg">
<path d="M235.55 347.69L239.43 345.46C239.43 345.46 237.2 344.75 236.18 345.23C235.16 345.71 235.55 347.69 235.55 347.69Z" fill="black"/>
<path d="M232.89 345.24C233.33 344.763 233.864 344.382 234.459 344.121C235.053 343.861 235.695 343.726 236.345 343.726C236.994 343.726 237.636 343.861 238.231 344.121C238.825 344.382 239.359 344.763 239.8 345.24C243.57 348.71 243.8 352.14 245.33 352.08C246.86 352.02 246.87 332.64 246.87 332.64L232 338.25L232.89 345.24Z" fill="#087E8B"/>
<path opacity="0.3" d="M232.89 345.24C233.33 344.763 233.864 344.382 234.459 344.121C235.053 343.861 235.695 343.726 236.345 343.726C236.994 343.726 237.636 343.861 238.231 344.121C238.825 344.382 239.359 344.763 239.8 345.24C243.57 348.71 243.8 352.14 245.33 352.08C246.86 352.02 246.87 332.64 246.87 332.64L232 338.25L232.89 345.24Z" fill="black"/>
<path d="M386.36 253.84L386.6 253.7L384.21 252.32L284.21 194.32L134.42 280.85C131.95 282.28 131.51 284.34 133.42 285.45L136.92 287.45L232.85 342.86L233.53 342.36L386.36 253.84Z" fill="#087E8B"/>
<path opacity="0.2" d="M386.36 253.84L386.6 253.7L284.24 194.36L134.42 280.85C131.95 282.28 131.51 284.34 133.42 285.45L136.92 287.45L232.85 342.86L233.53 342.36L386.36 253.84Z" fill="black"/>
<path d="M245.67 319.57L238.24 318V339.53C242.72 341.43 245.57 343.23 246.04 346.98L245.67 319.57Z" fill="#455A64"/>
<path d="M235 340L140 285.14C139.128 284.573 138.402 283.808 137.881 282.908C137.359 282.008 137.058 280.998 137 279.96V258.86L232.95 314.74C232.95 314.74 234.09 318.89 237.5 320.2C240.91 321.51 238.3 322.82 238.3 322.82V339.61C235.3 339.22 235 340 235 340Z" fill="#F5F5F5"/>
<path d="M243.72 318.56C242.72 317.99 241.96 317.95 241.96 318.49V319.42C241.96 320.42 240.39 320.42 238.45 319.28C236.51 318.14 234.93 316.42 234.93 315.39V314.45C234.93 313.92 233.6 312.73 231.93 311.78L386.58 223.2L388.97 224.59C389.3 224.942 389.507 225.391 389.56 225.87V226.8C389.56 227.8 391.13 229.57 393.06 230.69C394.99 231.81 396.57 231.87 396.57 230.83V229.9C396.57 229.37 397.35 229.4 398.33 229.97L243.72 318.56Z" fill="#087E8B"/>
<path opacity="0.4" d="M243.72 318.56C242.72 317.99 241.96 317.95 241.96 318.49V319.42C241.96 320.42 240.39 320.42 238.45 319.28C236.51 318.14 234.93 316.42 234.93 315.39V314.45C234.93 313.92 233.6 312.73 231.93 311.78L386.58 223.2L388.97 224.59C389.3 224.942 389.507 225.391 389.56 225.87V226.8C389.56 227.8 391.13 229.57 393.06 230.69C394.99 231.81 396.57 231.87 396.57 230.83V229.9C396.57 229.37 397.35 229.4 398.33 229.97L243.72 318.56Z" fill="black"/>
<path d="M388.73 224.73L388.97 224.59L386.58 223.21L284 164L134.42 250.31C131.95 251.74 131.51 253.8 133.42 254.91L136.91 256.91L232.86 314.69L388.73 224.73Z" fill="#087E8B"/>
<path opacity="0.2" d="M388.73 224.73L388.97 224.59L386.58 223.21L284 164L134.42 250.31C131.95 251.74 131.51 253.8 133.42 254.91L136.91 256.91L232.86 314.69L388.73 224.73Z" fill="black"/>
<path d="M396.599 229L242.109 318.2L247.519 322.43L401.519 233.52C401.14 232.377 400.421 231.376 399.459 230.65L396.599 229Z" fill="#087E8B"/>
<path opacity="0.2" d="M396.599 229L242.109 318.2L247.519 322.43L401.519 233.52C401.14 232.377 400.421 231.376 399.459 230.65L396.599 229Z" fill="black"/>
<path d="M400.899 265.23C401.001 265.176 401.095 265.109 401.179 265.03C401.249 264.997 401.308 264.945 401.349 264.88C401.478 264.758 401.586 264.616 401.669 264.46C401.727 264.392 401.778 264.319 401.819 264.24C401.978 263.966 402.112 263.678 402.219 263.38C402.341 263.052 402.444 262.719 402.529 262.38C402.609 262 402.679 261.62 402.749 261.21C402.795 260.976 402.825 260.738 402.839 260.5C402.839 260.31 402.839 260.14 402.889 259.93C402.889 259.5 402.939 259.05 402.939 258.59V241.29C402.96 238.63 402.475 235.989 401.509 233.51L247.509 322.42L246.859 354.18L400.859 265.26L400.899 265.23Z" fill="#087E8B"/>
<path d="M268.899 310.07L287.459 299.35C290.289 313.56 290.689 318.68 287.459 330.74L268.899 341.46C272.129 329.4 271.729 324.28 268.899 310.07Z" fill="#087E8B"/>
<path opacity="0.4" d="M262.71 313.64L281.27 302.92C284.1 317.12 284.5 322.25 281.27 334.31L262.7 345C265.94 333 265.53 327.84 262.71 313.64Z" fill="white"/>
<path d="M249 330.21H245.5C245.58 327.597 245.006 325.005 243.83 322.67C243.018 323.289 242.021 323.617 241 323.6C239.48 323.521 238.004 323.06 236.71 322.26C235.154 321.375 233.793 320.184 232.71 318.76C232.633 318.663 232.566 318.559 232.51 318.45C231.909 317.579 231.562 316.557 231.51 315.5L140.51 262.96L137.42 261.17L133.48 258.89C133.137 258.732 132.843 258.484 132.63 258.172C132.417 257.86 132.293 257.497 132.27 257.12V253.12C132.286 253.506 132.408 253.88 132.621 254.203C132.834 254.525 133.131 254.783 133.48 254.95H133.53L143.97 260.95L231.97 311.77C233.6 312.77 234.97 313.91 234.97 314.44V315.37C235.049 315.992 235.334 316.569 235.78 317.01C236.534 317.918 237.445 318.683 238.47 319.27C240.41 320.39 241.98 320.44 241.98 319.41V318.48C241.98 317.94 242.76 317.98 243.74 318.54L245.48 319.54C247.38 320.68 249 325.45 249 330.21Z" fill="#087E8B"/>
<path opacity="0.3" d="M249 330.21H245.5C245.58 327.597 245.006 325.005 243.83 322.67C243.018 323.289 242.021 323.617 241 323.6C239.48 323.521 238.004 323.06 236.71 322.26C235.154 321.375 233.793 320.184 232.71 318.76C232.633 318.663 232.566 318.559 232.51 318.45C231.909 317.579 231.562 316.557 231.51 315.5L140.51 262.96L137.42 261.17L133.48 258.89C133.137 258.732 132.843 258.484 132.63 258.172C132.417 257.86 132.293 257.497 132.27 257.12V253.12C132.286 253.506 132.408 253.88 132.621 254.203C132.834 254.525 133.131 254.783 133.48 254.95H133.53L143.97 260.95L231.97 311.77C233.6 312.77 234.97 313.91 234.97 314.44V315.37C235.049 315.992 235.334 316.569 235.78 317.01C236.534 317.918 237.445 318.683 238.47 319.27C240.41 320.39 241.98 320.44 241.98 319.41V318.48C241.98 317.94 242.76 317.98 243.74 318.54L245.48 319.54C247.38 320.68 249 325.45 249 330.21Z" fill="black"/>
<path d="M245.5 330.21V347.5C245.5 347.87 245.5 348.23 245.5 348.57L245.41 349.44C245.419 349.466 245.419 349.494 245.41 349.52C245.1 346.78 242.48 344.33 240.21 343.04C238.942 342.25 237.492 341.799 236 341.73C234.868 341.718 233.771 342.124 232.92 342.87L232.61 342.7L232 342.33L144 291.51L138.95 288.6C138.48 288.32 137.95 288.05 137.5 287.75L133.24 285.29C132.957 285.113 132.723 284.869 132.559 284.579C132.395 284.289 132.306 283.963 132.3 283.63V287.63C132.31 287.939 132.394 288.241 132.546 288.511C132.697 288.781 132.911 289.01 133.17 289.18C133.67 289.48 134.17 289.77 134.74 290.1L135.74 290.67C136.33 290.99 136.9 291.34 137.43 291.67C137.96 292 138.15 292.1 138.48 292.27L139.22 292.7L140.51 293.46L210.43 333.8L232.75 346.7C234.34 347.63 235.63 347.95 235.75 347.47C235.753 347.417 235.753 347.363 235.75 347.31V346.4C235.75 345.28 237.32 345.28 239.25 346.4C241.18 347.52 241.98 348.83 242.01 349.92V351.02C241.989 351.264 242.025 351.509 242.116 351.736C242.206 351.964 242.348 352.167 242.53 352.33C242.694 352.436 242.865 352.533 243.04 352.62L244.15 353.26L245.51 354.05C245.773 354.229 246.089 354.313 246.407 354.285C246.724 354.258 247.022 354.122 247.25 353.9C247.32 353.863 247.379 353.808 247.42 353.74C247.545 353.621 247.65 353.483 247.73 353.33C247.791 353.27 247.845 353.203 247.89 353.13C248.05 352.858 248.18 352.57 248.28 352.27C248.406 351.944 248.509 351.61 248.59 351.27C248.68 350.89 248.75 350.51 248.82 350.09C248.867 349.859 248.894 349.625 248.9 349.39C248.9 349.2 248.9 349.03 248.96 348.82C248.96 348.39 248.96 347.94 248.96 347.47V330.21H245.5Z" fill="#087E8B"/>
<path opacity="0.3" d="M245.5 330.21V347.5C245.5 347.87 245.5 348.23 245.5 348.57L245.41 349.44C245.419 349.466 245.419 349.494 245.41 349.52C245.1 346.78 242.48 344.33 240.21 343.04C238.942 342.25 237.492 341.799 236 341.73C234.868 341.718 233.771 342.124 232.92 342.87L232.61 342.7L232 342.33L144 291.51L138.95 288.6C138.48 288.32 137.95 288.05 137.5 287.75L133.24 285.29C132.957 285.113 132.723 284.869 132.559 284.579C132.395 284.289 132.306 283.963 132.3 283.63V287.63C132.31 287.939 132.394 288.241 132.546 288.511C132.697 288.781 132.911 289.01 133.17 289.18C133.67 289.48 134.17 289.77 134.74 290.1L135.74 290.67C136.33 290.99 136.9 291.34 137.43 291.67C137.96 292 138.15 292.1 138.48 292.27L139.22 292.7L140.51 293.46L210.43 333.8L232.75 346.7C234.34 347.63 235.63 347.95 235.75 347.47C235.753 347.417 235.753 347.363 235.75 347.31V346.4C235.75 345.28 237.32 345.28 239.25 346.4C241.18 347.52 241.98 348.83 242.01 349.92V351.02C241.989 351.264 242.025 351.509 242.116 351.736C242.206 351.964 242.348 352.167 242.53 352.33C242.694 352.436 242.865 352.533 243.04 352.62L244.15 353.26L245.51 354.05C245.773 354.229 246.089 354.313 246.407 354.285C246.724 354.258 247.022 354.122 247.25 353.9C247.32 353.863 247.379 353.808 247.42 353.74C247.545 353.621 247.65 353.483 247.73 353.33C247.791 353.27 247.845 353.203 247.89 353.13C248.05 352.858 248.18 352.57 248.28 352.27C248.406 351.944 248.509 351.61 248.59 351.27C248.68 350.89 248.75 350.51 248.82 350.09C248.867 349.859 248.894 349.625 248.9 349.39C248.9 349.2 248.9 349.03 248.96 348.82C248.96 348.39 248.96 347.94 248.96 347.47V330.21H245.5Z" fill="black"/>
<path d="M289.41 326.41V325.28L290.19 324.83V302.75L289.41 303.2V302.07L294.06 299.39V304.39L293.51 304.71C293.521 303.969 293.494 303.228 293.43 302.49C293.416 302.113 293.317 301.743 293.14 301.41C293 301.24 292.81 301.22 292.56 301.41L291.47 302.03V312.5L293.13 311.5V309.79L293.67 309.49V314L293.13 314.31V312.66L291.47 313.66V324.14L292.55 323.52C292.823 323.348 293.028 323.087 293.13 322.78C293.297 322.317 293.394 321.832 293.42 321.34C293.48 320.73 293.51 319.95 293.51 319.02L294.06 318.7V323.77L289.41 326.41Z" fill="white"/>
<path d="M295.419 322.94V321.81L296.199 321.36V299.28L295.419 299.73V298.6L297.769 297.24L300.369 314.34H300.309V296.91L299.539 297.35V296.22L301.629 295.02V296.15L300.879 296.58V319.79L299.879 320.38L296.729 299.73H296.789V321L297.639 320.51V321.64L295.419 322.94Z" fill="white"/>
<path d="M305.51 317.46C305 317.76 304.51 317.55 304.12 316.85C303.577 315.708 303.238 314.479 303.12 313.22C302.842 311.011 302.719 308.786 302.75 306.56C302.729 304.177 302.869 301.794 303.17 299.43C303.373 297.778 303.739 296.15 304.26 294.57C304.477 293.699 304.964 292.919 305.65 292.34C305.793 292.218 305.979 292.158 306.166 292.173C306.354 292.188 306.528 292.277 306.65 292.42C306.96 292.804 307.164 293.262 307.24 293.75C307.38 294.438 307.447 295.138 307.44 295.84C307.456 296.315 307.402 296.79 307.28 297.25C307.23 297.526 307.076 297.773 306.85 297.94C306.65 298.05 306.51 297.99 306.41 297.76C306.298 297.439 306.247 297.1 306.26 296.76C306.256 296.485 306.28 296.21 306.33 295.94C306.39 295.7 306.44 295.45 306.49 295.2C306.541 294.906 306.564 294.608 306.56 294.31C306.575 294.025 306.501 293.742 306.35 293.5C306.323 293.453 306.286 293.412 306.242 293.381C306.197 293.349 306.147 293.328 306.093 293.319C306.04 293.309 305.985 293.312 305.933 293.326C305.88 293.34 305.831 293.365 305.79 293.4C305.49 293.57 305.23 294.08 305.01 294.92C304.765 295.94 304.591 296.976 304.49 298.02C304.35 299.25 304.25 300.55 304.18 301.92C304.11 303.29 304.08 304.6 304.08 305.84C304.08 307.64 304.08 309.21 304.2 310.57C304.32 311.93 304.39 313.05 304.52 313.95C304.604 314.612 304.761 315.263 304.99 315.89C305.17 316.29 305.36 316.44 305.57 316.32C305.728 316.222 305.862 316.088 305.96 315.93C306.056 315.778 306.136 315.618 306.2 315.45V306.88L305.47 307.3V306.17L308.13 304.63V305.76L307.38 306.2V316L306.88 316.29C306.862 316.256 306.834 316.228 306.8 316.21C306.8 316.21 306.71 316.21 306.64 316.21C306.535 316.289 306.447 316.387 306.38 316.5C306.29 316.64 306.17 316.8 306.04 316.97C305.897 317.166 305.717 317.333 305.51 317.46Z" fill="white"/>
<path d="M309.37 314.89V313.76L310.13 313.32V291.24L309.37 291.68V290.55L312.17 288.93V290.06L311.4 290.51V312.58L312.25 312.09C312.478 311.926 312.643 311.69 312.72 311.42C312.866 310.959 312.96 310.482 313 310C313.06 309.39 313.08 308.62 313.08 307.69L313.64 307.37V312.45L309.37 314.89Z" fill="white"/>
<path d="M315.12 311.56V310.43L315.93 309.97V287.89L315.12 288.36V287.23L318 285.56V286.69L317.19 287.16V309.24L318 308.77V309.9L315.12 311.56Z" fill="white"/>
<path d="M321.74 308.22C321.554 308.344 321.331 308.397 321.11 308.37C320.945 308.332 320.797 308.24 320.69 308.11C320.592 308.003 320.502 307.889 320.42 307.77C320.34 307.67 320.27 307.64 320.2 307.67C320.13 307.7 320.01 308.11 320.01 308.74L319.53 309.02V303.72L320.08 303.4C320.092 303.755 320.122 304.108 320.17 304.46C320.216 304.828 320.289 305.193 320.39 305.55C320.468 305.872 320.582 306.184 320.73 306.48C320.828 306.703 320.983 306.896 321.18 307.04C321.264 307.097 321.363 307.127 321.465 307.127C321.566 307.127 321.665 307.097 321.75 307.04C322.049 306.846 322.274 306.557 322.39 306.22C322.556 305.77 322.657 305.299 322.69 304.82C322.753 304.202 322.783 303.581 322.78 302.96C322.782 302.201 322.705 301.443 322.55 300.7C322.405 300.003 322.208 299.318 321.96 298.65C321.71 297.99 321.43 297.34 321.13 296.7C320.723 295.867 320.388 295 320.13 294.11C319.906 293.342 319.749 292.555 319.66 291.76C319.572 291.01 319.528 290.255 319.53 289.5C319.516 288.493 319.607 287.488 319.8 286.5C319.93 285.744 320.166 285.01 320.5 284.32C320.712 283.838 321.059 283.428 321.5 283.14C321.81 282.96 322.04 282.93 322.2 283.04C322.35 283.147 322.473 283.287 322.56 283.45C322.65 283.61 322.73 283.67 322.81 283.62C322.89 283.546 322.943 283.448 322.96 283.34C322.997 283.109 323.017 282.875 323.02 282.64L323.51 282.36V287.61L322.95 287.94C322.936 287.478 322.9 287.018 322.84 286.56C322.788 286.12 322.697 285.685 322.57 285.26C322.493 284.939 322.346 284.638 322.14 284.38C322.106 284.333 322.063 284.294 322.014 284.264C321.965 284.234 321.91 284.215 321.854 284.206C321.797 284.198 321.739 284.201 321.683 284.215C321.627 284.23 321.575 284.255 321.53 284.29C321.14 284.575 320.872 284.996 320.78 285.47C320.573 286.212 320.478 286.98 320.5 287.75C320.5 288.369 320.547 288.988 320.64 289.6C320.736 290.229 320.89 290.849 321.1 291.45C321.355 292.189 321.653 292.914 321.99 293.62C322.335 294.342 322.639 295.083 322.9 295.84C323.179 296.652 323.393 297.484 323.54 298.33C323.697 299.289 323.774 300.259 323.77 301.23C323.776 302.129 323.726 303.027 323.62 303.92C323.542 304.597 323.404 305.267 323.21 305.92C323.064 306.418 322.849 306.893 322.57 307.33C322.367 307.688 322.083 307.993 321.74 308.22Z" fill="white"/>
<path d="M325.06 305.82V304.69L325.84 304.25V282.17L325.06 282.62V281.49L327.76 279.93V281.06L327.11 281.44V291.56L329.32 290.28V280.16L328.68 280.53V279.4L331.36 277.85V279L330.56 279.46V301.54L331.36 301.08V302.21L328.68 303.76V302.63L329.32 302.26V291.41L327.11 292.69V303.52L327.76 303.14V304.27L325.06 305.82Z" fill="white"/>
<path d="M335.7 299.68V298.55L336.48 298.1V276L335.7 276.45V275.32L338.32 273.81C338.85 273.5 339.32 273.65 339.79 274.27C340.382 275.298 340.75 276.44 340.87 277.62C341.173 279.759 341.307 281.919 341.27 284.08C341.289 286.44 341.152 288.798 340.86 291.14C340.675 292.765 340.313 294.364 339.78 295.91C339.54 296.789 339.029 297.569 338.32 298.14L335.7 299.68ZM337.75 297.37L338.14 297.15C338.612 296.693 338.928 296.098 339.04 295.45C339.389 294.123 339.617 292.768 339.72 291.4C339.9 289.64 339.99 287.457 339.99 284.85C340.004 282.934 339.921 281.018 339.74 279.11C339.656 277.981 339.451 276.865 339.13 275.78C338.88 275.07 338.62 274.78 338.35 274.95L337.75 275.29V297.37Z" fill="white"/>
<path d="M342.57 295.72V294.59L343.37 294.13V272.05L342.57 272.51V271.38L345.45 269.72V270.85L344.63 271.32V293.4L345.45 292.93V294.06L342.57 295.72Z" fill="white"/>
<path d="M349.59 292C348.77 292.48 348.1 291.8 347.59 290C346.961 287.094 346.699 284.121 346.81 281.15C346.81 279.64 346.87 278.15 346.99 276.55C347.11 274.95 347.29 273.55 347.52 272.19C347.712 271.015 348.014 269.86 348.42 268.74C348.622 268.011 349.062 267.371 349.67 266.92C349.737 266.874 349.813 266.842 349.893 266.827C349.973 266.812 350.055 266.814 350.134 266.833C350.214 266.851 350.288 266.887 350.353 266.936C350.417 266.986 350.471 267.048 350.51 267.12C350.794 267.552 350.985 268.039 351.07 268.55C351.214 269.207 351.284 269.878 351.28 270.55C351.293 271.021 351.242 271.492 351.13 271.95C351.109 272.087 351.061 272.219 350.989 272.337C350.917 272.455 350.822 272.558 350.71 272.64C350.5 272.75 350.35 272.71 350.26 272.51C350.144 272.19 350.097 271.849 350.12 271.51C350.116 271.228 350.139 270.947 350.19 270.67C350.236 270.423 350.286 270.163 350.34 269.89C350.396 269.577 350.423 269.258 350.42 268.94C350.448 268.644 350.393 268.346 350.26 268.08C350.242 268.048 350.218 268.019 350.189 267.997C350.16 267.974 350.127 267.957 350.091 267.948C350.056 267.939 350.019 267.937 349.982 267.942C349.946 267.948 349.911 267.961 349.88 267.98C349.558 268.266 349.337 268.648 349.25 269.07C349.031 269.799 348.871 270.545 348.77 271.3C348.63 272.19 348.52 273.16 348.43 274.21C348.34 275.26 348.27 276.31 348.23 277.37C348.19 278.43 348.17 279.43 348.17 280.37C348.17 281.73 348.17 282.98 348.24 284.12C348.31 285.26 348.37 286.27 348.46 287.12C348.53 287.856 348.644 288.587 348.8 289.31C348.877 289.751 349.026 290.177 349.24 290.57C349.4 290.83 349.57 290.9 349.76 290.79C350.01 290.614 350.196 290.361 350.29 290.07C350.445 289.662 350.562 289.24 350.64 288.81C350.74 288.34 350.81 287.81 350.87 287.39L351.36 287.61C351.264 288.25 351.133 288.884 350.97 289.51C350.834 290.059 350.639 290.592 350.39 291.1C350.218 291.473 349.94 291.786 349.59 292Z" fill="white"/>
<path d="M353.71 289.29V288.16L354.71 287.6V265.52L354.1 265.88C353.813 266.042 353.588 266.296 353.46 266.6C353.294 267.028 353.202 267.481 353.19 267.94C353.19 268.52 353.13 269.32 353.13 270.33L352.57 270.65V265.65L358.1 262.46V267.46L357.55 267.78C357.55 266.78 357.55 266 357.49 265.46C357.494 265.108 357.401 264.762 357.22 264.46C357.09 264.31 356.87 264.32 356.58 264.46L355.97 264.82V286.89L356.97 286.32V287.45L353.71 289.29Z" fill="white"/>
<path d="M359.37 286V284.87L360.17 284.4V262.35L359.37 262.81V261.68L362.25 260.02V261.15L361.43 261.62V283.7L362.25 283.23V284.36L359.37 286Z" fill="white"/>
<path d="M366.25 282.43C365.7 282.75 365.25 282.5 364.83 281.68C364.324 280.45 364.017 279.147 363.92 277.82C363.689 275.701 363.582 273.571 363.6 271.44C363.589 269.176 363.696 266.913 363.92 264.66C364.061 262.991 364.365 261.34 364.83 259.73C365.008 258.786 365.51 257.934 366.25 257.32C366.81 257 367.25 257.25 367.7 258.07C368.203 259.305 368.513 260.61 368.62 261.94C368.86 264.071 368.97 266.215 368.95 268.36C368.962 270.611 368.852 272.861 368.62 275.1C368.472 276.766 368.164 278.413 367.7 280.02C367.505 280.965 366.994 281.816 366.25 282.43ZM366.25 281.3C366.48 281.17 366.68 280.78 366.85 280.14C367.045 279.294 367.182 278.435 367.26 277.57C367.37 276.49 367.46 275.25 367.51 273.83C367.56 272.41 367.6 270.83 367.6 269.13C367.6 267.43 367.6 265.9 367.51 264.53C367.42 263.16 367.37 262.01 367.26 261.06C367.195 260.345 367.058 259.638 366.85 258.95C366.68 258.49 366.48 258.32 366.25 258.45C365.929 258.767 365.724 259.183 365.67 259.63C365.47 260.482 365.333 261.348 365.26 262.22C365.15 263.29 365.08 264.54 365.03 265.97C364.98 267.4 364.95 268.97 364.95 270.66C364.95 272.35 364.95 273.9 365.03 275.26C365.11 276.62 365.15 277.78 365.26 278.72C365.318 279.433 365.455 280.137 365.67 280.82C365.83 281.27 366 281.43 366.25 281.3Z" fill="white"/>
<path d="M370 279.9V278.77L370.78 278.32V256.24L370 256.69V255.56L372.35 254.2L374.95 271.3H374.89V253.87L374.12 254.31V253.18L376.22 251.97V253.1L375.46 253.54V276.74L374.46 277.34L371.31 256.68H371.38V278L372.22 277.51V278.64L370 279.9Z" fill="white"/>
<path d="M376.939 275.87V274.74L377.619 274.35L379.189 250.18L380.079 249.67L381.759 272L382.569 271.53V272.66L379.679 274.33V273.2L380.389 272.79L379.299 255.95L378.199 274L378.829 273.63V274.76L376.939 275.87ZM378.259 269.69V268.61L380.339 267.41V268.49L378.259 269.69Z" fill="white"/>
<path d="M388.5 269.48C388.12 269.7 387.84 269.65 387.66 269.34C387.449 268.871 387.333 268.364 387.32 267.85C387.26 267.17 387.24 266.39 387.24 265.51C387.24 264.91 387.24 264.31 387.24 263.7C387.24 263.09 387.24 262.53 387.24 262.04C387.252 261.209 387.215 260.377 387.13 259.55C387.06 259.01 386.91 258.69 386.7 258.55C386.49 258.41 386.18 258.55 385.77 258.76L385.28 259.04V269.87L386.11 269.4V270.53L383.18 272.21V271.08L384.03 270.59V248.56L383.18 249.04V247.91L386.3 246.12C386.472 245.994 386.676 245.916 386.888 245.895C387.101 245.874 387.316 245.91 387.51 246C387.954 246.323 388.252 246.808 388.34 247.35C388.571 248.356 388.672 249.388 388.64 250.42C388.644 251.336 388.587 252.251 388.47 253.16C388.373 253.881 388.219 254.593 388.01 255.29C387.844 255.819 387.623 256.328 387.35 256.81C387.164 257.158 386.913 257.467 386.61 257.72C387.14 257.44 387.54 257.43 387.81 257.72C388.153 258.14 388.353 258.658 388.38 259.2C388.492 260.149 388.543 261.104 388.53 262.06C388.53 262.64 388.53 263.24 388.53 263.85C388.53 264.46 388.53 265.04 388.53 265.6C388.53 265.97 388.53 266.36 388.53 266.78C388.535 267.115 388.565 267.449 388.62 267.78C388.62 268.06 388.73 268.17 388.81 268.12C388.89 268.07 388.9 268.01 388.94 267.86C388.98 267.717 389 267.569 389 267.42L389.51 267.13C389.502 267.499 389.449 267.865 389.35 268.22C389.267 268.5 389.142 268.767 388.98 269.01C388.858 269.201 388.694 269.362 388.5 269.48ZM385.31 258L385.98 257.62C386.382 257.325 386.666 256.896 386.78 256.41C387.012 255.672 387.167 254.911 387.24 254.14C387.343 253.187 387.393 252.229 387.39 251.27C387.398 250.475 387.358 249.68 387.27 248.89C387.246 248.413 387.105 247.949 386.86 247.54C386.67 247.28 386.4 247.25 386.05 247.46L385.31 247.88V258Z" fill="white"/>
<path d="M391.25 267.61V266.48L392.1 265.99V256.9L390.56 244.8L389.78 245.26V244.13L392.66 242.46V243.59L392 244L393.32 255.4L392.88 255.65L394.31 242.65L393.65 243.04V241.91L395.65 240.73V241.86L394.87 242.31L393.32 255.84V265.28L394.11 264.82V265.95L391.25 267.61Z" fill="white"/>
<path d="M240.94 300.12L244.5 298.07C244.5 298.07 242.5 297.43 241.5 297.87C240.5 298.31 240.94 300.12 240.94 300.12Z" fill="black"/>
<path d="M238.5 297.88C238.904 297.442 239.394 297.092 239.939 296.853C240.485 296.614 241.074 296.49 241.67 296.49C242.266 296.49 242.855 296.614 243.401 296.853C243.946 297.092 244.436 297.442 244.84 297.88C248.29 301.05 248.47 304.2 249.9 304.15C251.33 304.1 251.31 285.79 251.31 285.79L237.69 291.47L238.5 297.88Z" fill="#37474F"/>
<path d="M374.15 217.19L279.55 163.07L148.27 238.87C146 240.18 145.6 242.07 147.37 243.09L150.57 244.93L238.48 295.7L239.11 295.25L374.15 217.19Z" fill="black"/>
<path d="M250.2 273.82L243.4 272.41V292.68C247.5 294.42 250.11 296.07 250.54 299.5L250.2 273.82Z" fill="#455A64"/>
<path d="M240.39 293L153.31 242.72C152.51 242.204 151.844 241.505 151.368 240.681C150.891 239.857 150.618 238.931 150.57 237.98V218.14L238.49 269.35C238.49 269.35 239.49 273.15 242.66 274.35C245.83 275.55 243.4 276.76 243.4 276.76V292.68C240.71 292.36 240.39 293 240.39 293Z" fill="#F5F5F5"/>
<path d="M248.42 272.88C247.52 272.36 246.8 272.33 246.8 272.82V273.67C246.8 274.62 245.37 274.57 243.58 273.55C241.79 272.53 240.36 270.93 240.36 269.98V269.13C240.36 268.64 239.14 267.55 237.64 266.68L379.33 185.49L381.53 186.77C381.825 187.095 382.011 187.504 382.06 187.94V188.8C382.06 189.74 383.5 191.34 385.27 192.37C387.04 193.4 388.49 193.44 388.49 192.49V191.64C388.49 191.15 389.2 191.18 390.1 191.7L248.42 272.88Z" fill="#37474F"/>
<path d="M381.3 186.9L381.53 186.77L379.33 185.5L285.33 131.21L148.33 210.34C146.06 211.65 145.66 213.54 147.43 214.56L150.64 216.4L238.56 269.4L381.3 186.9Z" fill="#455A64"/>
<path d="M388.52 190.81L246.94 272.55L251.94 276.42L393 195C392.647 193.951 391.989 193.032 391.11 192.36L388.52 190.81Z" fill="#455A64"/>
<path d="M392.47 224.56C392.565 224.509 392.653 224.445 392.73 224.37C392.795 224.338 392.85 224.29 392.89 224.23C393.002 224.118 393.097 223.99 393.17 223.85C393.225 223.789 393.272 223.722 393.31 223.65C393.457 223.398 393.581 223.134 393.68 222.86C393.791 222.559 393.885 222.252 393.96 221.94C394.04 221.59 394.1 221.25 394.16 220.87C394.207 220.656 394.234 220.439 394.24 220.22C394.24 220.05 394.24 219.89 394.29 219.7C394.29 219.3 394.29 218.89 394.29 218.47V202.07C394.305 199.653 393.868 197.256 393 195L251.9 276.42L251.31 306.07L392.43 224.58L392.47 224.56Z" fill="#37474F"/>
<path d="M266.53 268L273.86 263.78C276.45 276.78 276.86 282.03 273.86 293.08L266.54 297.31C269.5 286.22 269.12 281 266.53 268Z" fill="#087E8B"/>
<path d="M371.85 207.17L379.17 202.94C381.76 215.94 382.17 221.2 379.17 232.25L371.85 236.47C374.82 225.42 374.44 220.18 371.85 207.17Z" fill="#087E8B"/>
<path d="M253.21 283.56H250.05C250.125 281.168 249.599 278.796 248.52 276.66C247.774 277.221 246.863 277.52 245.93 277.51C244.537 277.44 243.184 277.017 242 276.28C240.577 275.47 239.335 274.378 238.35 273.07C238.28 272.981 238.216 272.888 238.16 272.79C237.595 271.998 237.266 271.062 237.21 270.09L153.8 221.93L151 220.29L147.38 218.21C147.066 218.062 146.798 217.833 146.602 217.547C146.407 217.26 146.292 216.926 146.27 216.58V212.88C146.29 213.233 146.403 213.575 146.598 213.87C146.793 214.165 147.063 214.403 147.38 214.56L157 220.1L237.66 266.68C239.16 267.55 240.39 268.68 240.39 269.12V270C240.465 270.568 240.725 271.095 241.13 271.5C241.826 272.329 242.662 273.03 243.6 273.57C245.38 274.57 246.82 274.64 246.82 273.69V272.84C246.82 272.35 247.53 272.38 248.43 272.9L250.02 273.84C251.77 274.83 253.21 279.2 253.21 283.56Z" fill="#263238"/>
<path d="M250.05 283.56V300C250.05 300.33 250.05 300.67 250.05 301L249.97 301.79C249.979 301.816 249.979 301.844 249.97 301.87C249.69 299.36 247.29 297.12 245.2 295.93C244.04 295.208 242.715 294.795 241.35 294.73C240.317 294.71 239.311 295.065 238.52 295.73L238.24 295.58L237.68 295.24L157 248.64L152.36 246L151 245.2L147.1 242.94C146.841 242.778 146.627 242.554 146.475 242.289C146.323 242.024 146.239 241.725 146.23 241.42V245.12C146.242 245.404 146.321 245.681 146.462 245.929C146.603 246.176 146.801 246.385 147.04 246.54C147.5 246.81 148.04 247.08 148.48 247.38L149.38 247.9L150.93 248.8C151.27 249 151.59 249.19 151.93 249.35C152.27 249.51 152.4 249.64 152.61 249.75L153.79 250.44L217.87 287.44L238.32 299.26C239.77 300.11 240.96 300.41 241.04 299.97C241.044 299.92 241.044 299.87 241.04 299.82V299C241.04 298 242.48 298 244.25 299C246.02 300 246.74 301.23 246.78 302.22V303.22C246.761 303.443 246.794 303.667 246.875 303.875C246.957 304.083 247.085 304.269 247.25 304.42L247.72 304.69L248.72 305.27L250 306C250.243 306.161 250.534 306.235 250.824 306.209C251.115 306.184 251.388 306.061 251.6 305.86C251.661 305.827 251.713 305.779 251.75 305.72C251.863 305.607 251.96 305.479 252.04 305.34C252.094 305.283 252.141 305.219 252.18 305.15C252.332 304.902 252.452 304.637 252.54 304.36C252.655 304.063 252.751 303.759 252.83 303.45C252.91 303.1 252.97 302.75 253.03 302.37C253.077 302.16 253.104 301.945 253.11 301.73C253.11 301.55 253.11 301.39 253.11 301.2C253.11 300.81 253.16 300.4 253.16 299.97V283.56H250.05Z" fill="#263238"/>
<path d="M283.18 271.87C283.18 269.67 283.18 267.45 283.18 265.25L282.11 265.63V264.41L285.94 262.2C287.94 261.05 289.04 262.05 289.04 264.84C289.07 265.866 288.89 266.887 288.512 267.842C288.134 268.796 287.565 269.663 286.84 270.39C287.91 270.14 288.36 271.01 288.6 273.11L288.99 276.3L289.99 275.95V277.17C289.671 277.575 289.278 277.915 288.83 278.17C287.89 278.71 287.4 278.47 287.26 276.94L286.89 273.52C286.7 271.67 286.3 271.33 285.4 271.85L284.85 272.16C284.85 274.51 284.85 276.6 284.85 278.67L285.93 278.28V279.51L282.1 281.72V280.49L283.17 279.64C283.17 277.46 283.17 275.24 283.17 273L283.18 271.87ZM284.83 264.15C284.83 266.38 284.83 268.63 284.83 270.85L285.57 270.42C286.89 269.66 287.41 267.84 287.41 265.94C287.41 263.8 286.85 263 285.67 263.68L284.83 264.15Z" fill="#EBEBEB"/>
<path d="M290.35 270.7C290.35 266.52 291.77 263.25 293.41 262.3C295.05 261.35 296.49 262.95 296.49 267.15C296.49 271.35 295.13 274.54 293.41 275.53C291.69 276.52 290.35 274.85 290.35 270.7ZM294.83 268.14C294.83 264.54 294.33 263.05 293.41 263.58C292.49 264.11 292.02 266.16 292.02 269.76C292.02 273.36 292.5 274.76 293.41 274.26C294.32 273.76 294.83 271.74 294.83 268.14Z" fill="#EBEBEB"/>
<path d="M307.35 258.85V261.64C307.35 262.82 307.35 264.43 307.35 265.73L308.12 265.6V266.67L305.02 268.46V267.39L305.81 266.59C305.81 265.31 305.81 263.69 305.81 262.51V260.11C305.81 257.92 305.54 257.47 304.91 257.84C304.244 258.401 303.757 259.145 303.51 259.98C303.51 260.31 303.51 260.7 303.51 261.11V263.83C303.51 265 303.51 266.62 303.51 267.92L304.27 267.79V268.86L301.15 270.66V269.59L301.97 268.78C301.97 267.49 301.97 265.88 301.97 264.7V262.35C301.97 260.24 301.74 259.64 301.08 260.02C300.427 260.578 299.945 261.31 299.69 262.13V266C299.69 267.14 299.69 268.79 299.69 270.09L300.44 269.97V271.04L297.3 272.85V271.8L298.12 270.98C298.12 269.7 298.12 267.98 298.12 266.9V265.52C298.12 264.09 298.12 263.43 298.12 262.41L297.23 262.69V261.69L299.35 258.82L299.55 258.96L299.66 260.96C300.27 259.17 300.99 257.89 301.77 257.44C302.55 256.99 303.13 257.44 303.36 258.93C304.04 256.81 304.77 255.71 305.54 255.26C306.77 254.59 307.35 255.66 307.35 258.85Z" fill="#EBEBEB"/>
<path d="M314.51 255.37C314.516 255.864 314.493 256.358 314.44 256.85L310.55 259.09C310.61 262.09 311.39 263.09 312.45 262.48C313.285 261.829 313.871 260.911 314.11 259.88L314.48 260.35C313.98 262.56 313.12 264.16 311.93 264.84C310.15 265.84 308.93 264.12 308.93 260.02C308.93 255.92 310.42 252.48 312.02 251.56C313.62 250.64 314.51 252.21 314.51 255.37ZM310.56 257.86L312.3 256.86C312.91 256.51 313.06 255.86 313.06 254.93C313.06 253.34 312.56 252.51 311.93 252.87C311.3 253.23 310.66 254.69 310.56 257.86Z" fill="#EBEBEB"/>
<path d="M315.48 256.19C315.48 252.01 316.91 248.74 318.55 247.79C320.19 246.84 321.62 248.44 321.62 252.64C321.62 256.84 320.26 260.03 318.55 261.02C316.84 262.01 315.48 260.34 315.48 256.19ZM319.96 253.63C319.96 250.03 319.46 248.54 318.55 249.07C317.64 249.6 317.15 251.65 317.15 255.25C317.15 258.85 317.63 260.25 318.55 259.75C319.47 259.25 320 257.23 320 253.63H319.96Z" fill="#EBEBEB"/>
<path d="M332.46 253C332.336 253.108 332.19 253.186 332.032 253.229C331.874 253.271 331.708 253.277 331.547 253.247C331.386 253.216 331.234 253.149 331.103 253.051C330.972 252.952 330.865 252.826 330.79 252.68C330.67 252.5 330.54 252.31 330.43 252.11C330.026 253.541 329.134 254.786 327.91 255.63C326.27 256.58 325.26 255.04 325.26 252.48C325.267 250.24 325.943 248.054 327.2 246.2C327.2 246.2 327.2 246.14 327.13 246.11C326.566 244.967 326.288 243.704 326.32 242.43C326.32 240 327.23 237.98 328.54 237.23C329.85 236.48 330.62 237.39 330.62 239.37C330.545 241.336 329.884 243.234 328.72 244.82C328.96 245.23 329.28 245.75 329.72 246.47C330.16 247.19 330.63 247.96 331.05 248.63C331.488 246.852 331.792 245.044 331.96 243.22L330.96 243.45V242.33L333.66 240.77V241.9L332.73 242.75C332.452 244.942 332.014 247.111 331.42 249.24C331.72 249.72 332.04 250.24 332.42 250.81L333.65 250.54L333.56 252.06C333.245 252.429 332.874 252.747 332.46 253ZM327.46 246.78C326.905 248.04 326.626 249.404 326.64 250.78C326.64 252.78 327.36 254.01 328.47 253.37C329.149 252.909 329.677 252.259 329.99 251.5L328.78 249.33C328.23 248.18 327.84 247.41 327.5 246.77L327.46 246.78ZM328.36 244.25C329.022 242.873 329.4 241.376 329.47 239.85C329.47 238.49 329.06 237.85 328.47 238.22C328.107 238.586 327.829 239.028 327.656 239.513C327.484 239.999 327.42 240.517 327.47 241.03C327.449 241.881 327.624 242.726 327.98 243.5C328.15 243.76 328.26 244 328.4 244.24L328.36 244.25Z" fill="#EBEBEB"/>
<path d="M337.47 232.43L341.47 230.14V231.36L340.4 232.21C340.4 234.37 340.4 236.53 340.4 238.73V242.15C340.453 244.44 340.319 246.731 340 249C339.63 251.64 338.59 253.52 337.48 254.16C336.9 254.5 336.37 254.41 336.17 253.46C336.139 253.063 336.204 252.664 336.359 252.297C336.514 251.93 336.754 251.605 337.06 251.35C337.44 251.13 337.74 251.3 338.12 251.84L338.4 252.28C338.72 251.037 338.851 249.752 338.79 248.47C338.79 246.47 338.79 243.02 338.69 233.26L337.49 233.69L337.47 232.43Z" fill="#EBEBEB"/>
<path d="M346.45 244.78L346.35 242.57C345.74 244.51 344.99 245.76 344.19 246.22C343.13 246.83 342.45 245.97 342.46 242.52L342.51 236.04L341.68 236.15V235.15L343.91 233.31L344.06 233.51L344 237.2V241.54C344 243.54 344.3 244 344.86 243.68C345.542 243.046 346.042 242.242 346.31 241.35V233.84L345.51 233.93V232.93L347.68 231.07L347.85 231.26V234.94V242.3L348.63 242.19V243.26L346.45 244.78Z" fill="#EBEBEB"/>
<path d="M351.58 222.45L351.77 222.58V226.29V236C351.77 237.35 351.77 238.7 351.77 240.05L352.64 239.89V241L349.33 242.91V241.84L350.2 241C350.2 239.64 350.2 238.27 350.2 236.92V225.72L349.27 225.99V224.99L351.58 222.45Z" fill="#EBEBEB"/>
<path d="M356.48 238.76L353.32 240.58V239.51L354.16 238.69C354.16 237.4 354.16 235.69 354.16 234.61V233.38C354.16 231.95 354.16 231.14 354.16 230.11L353.25 230.4V229.4L355.54 226.4L355.75 226.55V230.25V233.69C355.75 234.82 355.75 236.49 355.75 237.79L356.53 237.65L356.48 238.76ZM354 223.06C353.966 222.605 354.039 222.148 354.212 221.727C354.386 221.305 354.656 220.929 355 220.63C355.54 220.32 356 220.83 356 221.96C356.029 222.41 355.954 222.861 355.781 223.277C355.607 223.693 355.34 224.064 355 224.36C354.38 224.68 354 224.13 354 223.06Z" fill="#EBEBEB"/>
<path d="M362.87 227.45C362.876 227.941 362.853 228.432 362.8 228.92L358.9 231.17C358.97 234.17 359.74 235.17 360.81 234.56C361.645 233.909 362.231 232.991 362.47 231.96L362.83 232.43C362.34 234.64 361.47 236.24 360.29 236.92C358.51 237.92 357.29 236.2 357.29 232.1C357.29 228 358.78 224.56 360.38 223.64C361.98 222.72 362.87 224.29 362.87 227.45ZM358.92 229.94L360.66 228.94C361.27 228.59 361.42 227.94 361.42 227.01C361.42 225.42 360.91 224.59 360.29 224.95C359.67 225.31 359 226.77 358.92 229.94Z" fill="#EBEBEB"/>
<path d="M366.65 231.53C367.005 231.241 367.275 230.861 367.43 230.43L367.73 230.9C367.547 231.986 366.944 232.956 366.05 233.6C365.05 234.18 364.43 233.54 364.43 231.25C364.43 230.46 364.43 229.83 364.43 228.81V223.25L363.49 223.8V222.44L364.49 221.58L364.97 217.73L365.97 217.13L365.92 220.76L367.45 219.88V221.48L365.91 222.36V230.06C366 231.34 366.24 231.76 366.65 231.53Z" fill="#EBEBEB"/>
<path d="M218.65 281.32C224.41 280.58 229.33 285.22 229.79 286.7C230.42 288.7 230.18 292.7 227.79 297.7C225.712 302.646 224.815 308.007 225.17 313.36C225.56 317.92 227.67 329.3 223.05 334.98C218.43 340.66 208.18 345.6 204.6 337.76C203.42 335.19 205.86 326.34 206.96 319.87C209.15 306.99 210.85 294.19 210.85 294.19L218.65 281.32Z" fill="#263238"/>
<path d="M220.4 291.62C219.4 297.875 218.879 304.196 218.84 310.53C218.91 317.44 217.43 321.98 215.02 325.06C212.37 328.45 205.77 330.32 206.59 323.19C207.16 318.24 210.86 294.19 210.86 294.19L220.4 291.62Z" fill="#FFA8A7"/>
<path opacity="0.15" d="M227.88 284.41C228.13 288.67 225.77 299.97 219.96 309.41C214.26 318.66 205.96 329.55 204.31 336.17C204.17 333.12 205.48 327.55 206.46 322.59L206.52 322.27C206.58 321.98 206.63 321.69 206.69 321.41C206.75 321.13 206.74 321.15 206.76 321.02C206.83 320.65 206.89 320.29 206.95 319.93V319.86C207.63 315.86 208.27 311.86 208.82 308.2C209.26 305.3 209.65 302.66 209.97 300.47C210.12 299.37 210.26 298.39 210.38 297.54C210.44 297.12 210.49 296.73 210.54 296.38C210.74 294.98 210.84 294.18 210.84 294.18L218.63 281.32C219.002 281.277 219.375 281.254 219.75 281.25C222.749 281.304 225.631 282.425 227.88 284.41Z" fill="black"/>
<path d="M196.23 209C214.67 195.48 235.56 180.2 235.56 180.2L292.85 183.86L236 227.12L210.9 243.81C210.9 243.81 206.14 243.39 209 250.86C209.9 253.23 211.27 257.97 212.7 263.34L200.85 295.16C200.85 295.16 193.62 284.45 185.85 263.75C177.93 242.75 177.48 235.9 178.35 231.75C179.47 226.34 181.17 220.07 196.23 209Z" fill="#087E8B"/>
<path opacity="0.6" d="M196.23 209C214.67 195.48 235.56 180.2 235.56 180.2L292.85 183.86L236 227.12L210.9 243.81C210.9 243.81 206.14 243.39 209 250.86C209.9 253.23 211.27 257.97 212.7 263.34L200.85 295.16C200.85 295.16 193.62 284.45 185.85 263.75C177.93 242.75 177.48 235.9 178.35 231.75C179.47 226.34 181.17 220.07 196.23 209Z" fill="white"/>
<path opacity="0.4" d="M207 209.76C202.244 213.337 197.703 217.19 193.4 221.3C191.267 223.317 189.294 225.497 187.5 227.82C186.644 228.884 186.002 230.103 185.61 231.41C185.306 232.827 185.106 234.264 185.01 235.71C184.877 238.617 185.078 241.529 185.61 244.39C186.08 247.29 186.77 250.17 187.5 253.04C189.03 258.81 190.44 264.6 191.84 270.41C189.71 264.82 187.84 259.16 186.04 253.41C185.118 250.54 184.366 247.619 183.79 244.66C183.178 241.658 182.957 238.589 183.13 235.53C183.244 233.999 183.471 232.478 183.81 230.98C184.283 229.424 185.069 227.981 186.12 226.74C188.029 224.38 190.151 222.201 192.46 220.23C196.978 216.305 201.845 212.801 207 209.76Z" fill="#087E8B"/>
<path opacity="0.4" d="M241.94 214.82C241.2 215.31 237.94 217.56 237.06 218.16C225.46 226.22 205.86 241.86 203.62 248.76C202.23 253.03 196.99 265.47 194.05 281.65C194.05 281.65 194.5 270.92 194.98 260.4C195.67 245.7 198.37 241.58 203.19 236.19C207.84 231 232.49 216.19 234.19 215.24C229.98 211.85 227.96 204.93 228 201.44C228 201.44 234.15 212.05 241.94 214.82Z" fill="#087E8B"/>
<path d="M206.8 333.53C208.3 333.45 208.38 336.01 209.26 339.27C209.83 341.38 210.92 344.91 209.66 349.01C208.4 353.11 201.9 353.91 198.66 359.35C195.42 364.79 190.77 374.55 179.25 377.73C167.73 380.91 158.61 377.61 156.25 374.27C153.89 370.93 155.61 367.52 162.82 362.8C170.46 357.8 172.62 356.32 172.62 356.32L206.8 333.53Z" fill="#263238"/>
<path d="M191.38 314.06C191.38 314.06 188.38 326.93 185.38 334.3C182.38 341.67 177.38 348.77 171.77 355.46C170.55 356.92 167.77 359.64 166.77 360.81C166.532 361.043 166.349 361.325 166.233 361.637C166.117 361.948 166.071 362.282 166.099 362.613C166.126 362.945 166.227 363.266 166.393 363.554C166.559 363.842 166.787 364.09 167.06 364.28C169.64 366.67 180.42 367.09 186.39 362.48C192.36 357.87 197.73 348.14 201.27 344.48C202.601 343.108 203.863 341.669 205.05 340.17C206.196 338.817 206.826 337.103 206.83 335.33C206.567 332.993 206.686 330.629 207.18 328.33C207.95 324.53 208.76 323.05 209.89 319.33L191.38 314.06Z" fill="#FFA8A7"/>
<path d="M292.85 183.88C299.12 203.58 298.06 214.43 294.44 222.83C291.44 229.83 285.81 237.07 269.75 244.65C254.53 251.83 240.25 259.46 236.48 261.19C232.71 262.92 231.48 267.1 229.62 274.53C227.9 281.59 225.73 293 217.9 308C209.64 323.78 207.4 328.45 207.4 328.45C207.4 328.45 196.34 331.79 188.46 324.3C188.46 324.3 196.21 263.66 198.08 253.84C199.33 247.26 201.08 243.63 206.44 238.93C218.79 228.02 241.56 214.93 241.56 214.93C241.56 214.93 240.04 194.93 244.05 183.93L292.85 183.88Z" fill="#087E8B"/>
<path opacity="0.6" d="M292.85 183.88C299.12 203.58 298.06 214.43 294.44 222.83C291.44 229.83 285.81 237.07 269.75 244.65C254.53 251.83 240.25 259.46 236.48 261.19C232.71 262.92 231.48 267.1 229.62 274.53C227.9 281.59 225.73 293 217.9 308C209.64 323.78 207.4 328.45 207.4 328.45C207.4 328.45 196.34 331.79 188.46 324.3C188.46 324.3 196.21 263.66 198.08 253.84C199.33 247.26 201.08 243.63 206.44 238.93C218.79 228.02 241.56 214.93 241.56 214.93C241.56 214.93 240.04 194.93 244.05 183.93L292.85 183.88Z" fill="white"/>
<path opacity="0.4" d="M195 311.93C195.873 303.103 196.927 294.297 198.16 285.51C199.41 276.73 200.74 267.97 202.57 259.24C202.8 258.15 203.08 257.06 203.35 255.97L203.85 254.32L204.46 252.7C205.353 250.582 206.527 248.595 207.95 246.79C210.807 243.296 214.135 240.217 217.84 237.64C221.44 234.99 225.23 232.64 228.98 230.31C232.73 227.98 236.51 225.62 240.32 223.31C236.74 225.93 233.1 228.45 229.48 231.02C225.86 233.59 222.2 236.02 218.73 238.77C215.233 241.375 212.09 244.424 209.38 247.84C208.087 249.544 207.015 251.406 206.19 253.38L205.63 254.88L205.18 256.41C204.93 257.47 204.67 258.53 204.44 259.61C203.5 263.91 202.72 268.27 201.94 272.61L199.64 285.69C198.153 294.463 196.607 303.21 195 311.93Z" fill="#087E8B"/>
<path d="M147.25 106.82L136.43 92.44C135.364 92.4937 134.336 92.8519 133.467 93.4723C132.599 94.0927 131.926 94.9491 131.53 95.94L142 110.23L147.25 106.82Z" fill="white"/>
<path d="M201.22 137.49C204.957 141.595 207.997 146.284 210.22 151.37C213.06 158.37 210.7 166.65 205.37 166.3C200.04 165.95 192.84 160.42 187.1 154.48C181.36 148.54 162.36 128.1 162.36 128.1C162.36 128.1 157.43 129.44 153.36 127.24C149.29 125.04 140 110 140 110C140 110 143.73 109.32 148 108.72C145.87 106.5 145.78 104.08 146.54 103.72C147.54 103.2 150.77 104.72 153.04 105.13C156.85 105.78 161.17 104.97 162.11 105.42C164.85 106.71 168.11 112.42 172.11 115.99C183.75 126.41 201.22 137.49 201.22 137.49Z" fill="#FFA8A7"/>
<path d="M244.15 104.27C234.81 100.07 230.15 107 223.1 116.34C217.71 123.51 204.02 139.16 204.02 139.16L189.02 128.59C185.79 137.02 181.29 142.42 175.7 145.27C175.7 145.27 186.31 157.36 195.1 163.7C202.44 169.01 205.51 170.49 213.91 163.25C221.37 156.83 246.26 136.09 246.26 136.09L244.15 104.27Z" fill="#EBEBEB"/>
<path opacity="0.1" d="M204 139.16C207.188 141.691 209.935 144.732 212.13 148.16C211.082 143.968 208.875 140.155 205.76 137.16L204 139.16Z" fill="black"/>
<path d="M162.38 128.1C162.38 128.1 165.09 125.72 165.38 122.73C165.38 122.73 160.81 123.41 158.7 119.37C156.59 115.33 157.7 113.66 154.15 112.52C151.897 111.755 149.803 110.586 147.97 109.07L140.48 110.32C140.48 110.32 144.98 119.53 147.08 122.67C149.18 125.81 154 130.28 162.38 128.1Z" fill="#F28F8F"/>
<path d="M146.52 106.18C146.52 106.18 141.63 106.18 139.18 107.57C138.12 108.15 137.54 108.98 138.42 111.15C138.71 111.714 139.121 112.207 139.624 112.592C140.127 112.978 140.71 113.247 141.33 113.38C140.948 113.807 140.675 114.32 140.536 114.876C140.396 115.432 140.394 116.013 140.53 116.57C140.797 117.398 141.301 118.13 141.98 118.674C142.659 119.218 143.484 119.55 144.35 119.63C144.122 120.056 144.013 120.535 144.036 121.018C144.059 121.5 144.213 121.968 144.48 122.37C144.924 122.924 145.488 123.371 146.128 123.677C146.769 123.983 147.47 124.142 148.18 124.14C148.175 125.201 148.576 126.224 149.3 127C150.44 128 154.3 128.72 157.3 128.53C160.3 128.34 160.3 125.53 159.24 124.47C158.365 123.67 157.285 123.13 156.12 122.91C156.396 122.506 156.571 122.042 156.632 121.557C156.693 121.072 156.637 120.579 156.47 120.12C155.87 118.65 152.38 118.31 152.38 118.31C152.38 118.31 154.33 116.75 153.59 114.99C152.85 113.23 148.72 112.92 148.72 112.92C149.191 112.829 149.617 112.582 149.931 112.219C150.245 111.857 150.427 111.399 150.45 110.92C148.39 109.3 146.76 107.64 146.52 106.18Z" fill="#FFA8A7"/>
<path d="M276.78 102.47L289.91 108C291.33 111.83 296.73 125 294.91 135.2C293.09 145.4 287.68 167.13 288.76 171.42C289.84 175.71 295.68 187.66 297.68 200.47C295.085 201.981 292.415 203.359 289.68 204.6C289.68 204.6 287.44 189.73 283.55 184.43C283.819 190.812 283.766 197.203 283.39 203.58C271.705 207.416 259.13 207.615 247.33 204.15C226.89 198.09 225.46 187.61 225.46 187.61C225.46 187.61 229.13 174.42 229.18 167.68C229.23 160.94 228.13 150 228.13 150C228.13 150 218.77 142.51 222.44 131.67C226.92 118.45 240.88 107.39 244.15 104.28L254.51 102.93L276.78 102.47Z" fill="white"/>
<path d="M276.59 103.47L289.13 108.71L289.32 109.23C291.03 113.73 295.57 125.71 293.95 134.98C293.41 138.04 292.54 142.16 291.62 146.52C288.91 159.33 287.05 168.62 287.81 171.61C288.41 173.645 289.114 175.647 289.92 177.61C292.02 183.11 295.17 191.35 296.61 199.91C295.5 200.54 292.98 201.91 290.48 203.11C289.83 199.31 287.72 188.36 284.38 183.8L282.45 181.18L282.57 184.43C282.91 193.82 282.57 200.74 282.45 202.82C271.13 206.344 259.024 206.459 247.64 203.15C229.64 197.81 226.83 188.95 226.51 187.61C227.01 185.75 230.15 174.03 230.2 167.61C230.26 160.9 229.13 149.97 229.12 149.86V149.44L228.79 149.18C228.44 148.89 220.03 141.98 223.43 131.95C227.25 120.67 238.37 110.78 243.12 106.56L244.64 105.19L254.64 103.89L276.64 103.44M276.83 102.44L254.56 102.89L244.2 104.24C240.93 107.35 226.97 118.41 222.49 131.63C218.82 142.47 228.18 149.96 228.18 149.96C228.18 149.96 229.31 160.87 229.25 167.6C229.19 174.33 225.53 187.53 225.53 187.53C225.53 187.53 226.96 198.01 247.4 204.07C252.949 205.701 258.705 206.523 264.49 206.51C270.947 206.587 277.371 205.573 283.49 203.51C283.866 197.133 283.919 190.742 283.65 184.36C287.54 189.66 289.78 204.53 289.78 204.53C292.514 203.289 295.184 201.911 297.78 200.4C295.78 187.59 289.94 175.64 288.86 171.35C287.78 167.06 293.22 145.35 295.01 135.13C296.8 124.91 291.41 111.76 290.01 107.93L276.88 102.45L276.83 102.44Z" fill="#EBEBEB"/>
<path d="M241 170.85C237.64 170.48 234.45 167.36 230.15 165.68C225.85 164 222.15 163.93 219.21 162.68C217.98 163.36 218.59 165.94 220.04 167.07C222.28 168.81 225.71 169.93 224.89 170.83C223.66 172.18 219.02 171.21 217.61 170.91C213.27 169.97 208.68 167.32 204.14 168.25C203.652 168.297 203.203 168.534 202.89 168.91C202.736 169.212 202.685 169.556 202.745 169.89C202.804 170.224 202.971 170.529 203.22 170.76C203.726 171.21 204.283 171.599 204.88 171.92C205.178 172.084 205.435 172.313 205.633 172.59C205.83 172.867 205.962 173.185 206.02 173.52C206.02 174.14 205.69 174.74 205.76 175.35C205.836 175.743 206.015 176.109 206.28 176.41C206.851 177.138 207.557 177.75 208.36 178.21C208.743 178.435 209.102 178.7 209.43 179C210.38 179.751 211.236 180.614 211.98 181.57C214.32 185.46 219.42 186.67 223.55 187.42C232.38 189.03 236.46 187.2 241.68 187.35C246.9 187.5 269.12 187 280.54 186.28C292.54 185.52 293.96 183.28 297.43 171.94C301.36 159.03 303.65 144.06 304.97 134.69C306.97 120.39 300.67 110.01 290.55 109.45C288.05 111.62 282.86 124.08 280.31 143.04L275.84 165C275.84 165 244.34 171.22 241 170.85Z" fill="#FFA8A7"/>
<path d="M289.91 108C297.39 109.58 304.1 108 307.97 117.4C310.3 123.06 306.19 137.6 303.73 146.52C300.87 156.91 297.97 172.84 296.06 178.76C294.15 184.68 293.06 186.02 286.69 187.06C280.32 188.1 252.41 187.73 252.41 187.73C252.41 187.73 255.1 184.63 254.66 178.41C254.22 172.19 252.4 169 252.4 169L275.53 164.53C275.53 164.53 278.95 144.53 280.61 136.13C282.449 126.382 285.576 116.923 289.91 108Z" fill="#EBEBEB"/>
<path opacity="0.1" d="M275.53 164.55C279.4 164.16 286.18 167.24 288.07 170.85C287.29 167.07 282.97 162.48 275.89 162.45L275.53 164.55Z" fill="black"/>
<path d="M278.66 87.14C279.05 85.47 278.66 83.62 279.31 81.9C279.903 80.2934 280.78 78.8064 281.9 77.51C283.3 75.98 285.34 75.86 287.24 75.43C289.726 74.9282 291.942 73.5338 293.47 71.51C294.21 70.4901 294.661 69.2893 294.775 68.0344C294.89 66.7795 294.663 65.5169 294.12 64.38C295.155 64.6003 296.128 65.0478 296.97 65.69C297.385 66.0134 297.7 66.4485 297.877 66.9445C298.054 67.4404 298.086 67.9765 297.97 68.49C298.407 68.1388 298.734 67.6691 298.911 67.1371C299.088 66.6051 299.109 66.0333 298.97 65.49C298.57 63.62 297.08 62.85 295.89 61.59C295.465 61.1276 295.179 60.5552 295.064 59.9382C294.95 59.3211 295.01 58.6842 295.24 58.1C296.93 53.79 294.48 49.1 290.88 46.6C287.07 43.9 282.31 43.14 277.77 42.6C271.307 41.74 264.736 42.8445 258.91 45.77C257.057 46.6873 255.367 47.9036 253.91 49.37C252.64 50.7 252.07 52.67 250.67 53.66C247.24 56.09 243.93 58.02 242.25 62.15C241.682 63.6991 241.345 65.3231 241.25 66.97C240.81 71.97 241.95 74.48 243.78 79.13C245.78 84.24 249.24 86.13 251.78 91.38C252.43 92.72 253.78 95.08 254.04 96.55C256.717 96.8707 259.414 97.0077 262.11 96.96C264.514 96.4282 266.835 95.5738 269.01 94.42C270.961 93.4037 272.854 92.2786 274.68 91.05C276.05 90.1 278.03 89.25 278.56 87.52C278.6 87.39 278.63 87.27 278.66 87.14Z" fill="#263238"/>
<path d="M251.87 88.93C249.36 89.55 247.57 88.38 245.94 86.77C242.3 83.19 241.77 79.37 243.23 76.77C244.43 74.6 247.59 73.08 249.93 74.37C252.44 75.76 252.59 77 253.6 78.66C254.61 80.32 256.88 78.86 255.72 72.01C260.31 69.53 259.12 61.69 261.49 58.33C265.2 53.08 271.83 54.03 274.02 55.09C275.261 54.1091 276.749 53.4909 278.32 53.3038C279.891 53.1167 281.483 53.368 282.92 54.03C286.18 55.56 288.48 59.03 290.27 71.2C292.08 83.63 290.38 92.07 287.64 94.87C285.76 96.8 281.19 98.43 276.78 98.41V103.93C269.967 111.632 261.186 117.336 251.38 120.43C251.29 115.76 252.38 110.36 254.52 104.3L254.19 87C254.19 87 254.26 88.35 251.87 88.93Z" fill="#FFA8A7"/>
<path d="M269.11 65.08L264.6 67.15C264.338 66.5312 264.323 65.8354 264.559 65.2063C264.796 64.5772 265.265 64.063 265.87 63.77C266.167 63.6346 266.489 63.5612 266.816 63.5543C267.143 63.5473 267.468 63.6069 267.771 63.7294C268.074 63.852 268.349 64.0349 268.579 64.2671C268.809 64.4993 268.99 64.7758 269.11 65.08Z" fill="#263238"/>
<path d="M286.86 66.06L282 65C282.046 64.6761 282.159 64.3652 282.33 64.0865C282.501 63.8078 282.728 63.5672 282.996 63.3798C283.264 63.1923 283.568 63.0618 283.889 62.9965C284.209 62.9312 284.54 62.9324 284.86 63C285.523 63.1557 286.1 63.5602 286.472 64.1299C286.844 64.6996 286.983 65.3907 286.86 66.06Z" fill="#263238"/>
<path d="M270.88 83.9L277.83 85.36C277.76 85.818 277.597 86.2569 277.351 86.6498C277.105 87.0428 276.782 87.3815 276.401 87.6454C276.021 87.9094 275.59 88.0929 275.136 88.1848C274.682 88.2767 274.213 88.275 273.76 88.18C272.825 87.9684 272.005 87.4074 271.47 86.6118C270.935 85.8162 270.724 84.8461 270.88 83.9Z" fill="#B16668"/>
<path d="M275.11 88.19C274.945 87.38 274.51 86.65 273.876 86.1196C273.242 85.5891 272.446 85.2896 271.62 85.27C271.387 85.2448 271.153 85.2448 270.92 85.27C271.071 85.9681 271.418 86.6085 271.922 87.1153C272.425 87.6221 273.063 87.9742 273.76 88.13C274.202 88.2348 274.66 88.2552 275.11 88.19Z" fill="#F28F8F"/>
<path d="M285.61 69.54C285.864 69.8904 285.997 70.3138 285.99 70.7465C285.983 71.1791 285.836 71.5978 285.57 71.9397C285.305 72.2816 284.936 72.5282 284.519 72.6425C284.101 72.7568 283.658 72.7326 283.255 72.5736C282.853 72.4147 282.513 72.1294 282.286 71.7608C282.06 71.3921 281.959 70.9599 281.999 70.529C282.039 70.0981 282.217 69.6918 282.508 69.371C282.798 69.0502 283.185 68.8323 283.61 68.75C283.984 68.6776 284.371 68.7134 284.725 68.8534C285.079 68.9933 285.386 69.2315 285.61 69.54Z" fill="#263238"/>
<path d="M270.16 70.31C270.375 70.5841 270.515 70.9097 270.565 71.2544C270.616 71.5991 270.576 71.9511 270.448 72.2755C270.321 72.5998 270.111 72.8853 269.84 73.1035C269.568 73.3218 269.244 73.4654 268.9 73.52C268.527 73.5935 268.141 73.5592 267.786 73.4211C267.432 73.2829 267.125 73.0467 266.9 72.74C266.685 72.4666 266.545 72.1418 266.494 71.7977C266.443 71.4537 266.482 71.1022 266.608 70.7781C266.735 70.454 266.943 70.1684 267.214 69.9495C267.484 69.7306 267.807 69.586 268.15 69.53C268.524 69.4544 268.913 69.4877 269.269 69.6259C269.625 69.7642 269.934 70.0016 270.16 70.31Z" fill="#263238"/>
<path d="M275.36 68.16L277.1 81.29L284.2 78.79L275.36 68.16Z" fill="#F28F8F"/>
<path d="M276.78 98.37C270.44 98.48 262.78 96.5 260.29 92.54C261.79 96.87 266.37 98.91 269.98 99.72C272.221 100.262 274.501 100.623 276.8 100.8L276.78 98.37Z" fill="#F28F8F"/>
<path d="M245.24 67.26C245.565 66.6206 245.998 66.0421 246.52 65.55C248.32 64.07 251.31 66.91 253.23 65.55C255.15 64.19 253.7 60.95 255.5 59.73C256.67 58.94 258.37 59.68 259.62 59.03C259.999 58.8113 260.315 58.4985 260.537 58.1218C260.76 57.7452 260.881 57.3174 260.89 56.88C260.9 56.0036 260.676 55.1404 260.24 54.38C259.792 53.7699 259.602 53.0088 259.71 52.26C260 51.37 261.13 51.07 261.71 50.26C261.951 49.8472 262.056 49.3687 262.009 48.8929C261.962 48.417 261.767 47.968 261.45 47.61C260.797 46.9043 259.974 46.3776 259.06 46.08C258.42 45.9108 257.854 45.5345 257.45 45.01C257.216 44.3026 257.185 43.5442 257.36 42.82C257.47 41.16 256.19 39.33 254.51 39.45C253.66 39.52 252.51 40.45 251.71 40.2C250.91 39.95 250.6 38.83 250.15 38.31C249.864 37.9845 249.504 37.7315 249.102 37.5718C248.699 37.4121 248.264 37.3501 247.832 37.3911C247.401 37.4321 246.985 37.5749 246.62 37.8076C246.254 38.0403 245.949 38.3565 245.73 38.73C245.57 39.01 245.45 39.33 245.26 39.61C245.034 39.9136 244.724 40.1439 244.368 40.272C244.013 40.4001 243.627 40.4203 243.26 40.33C242.48 40.12 241.92 39.44 241.18 39.13C240.861 39.0124 240.522 38.962 240.183 38.9819C239.844 39.0017 239.513 39.0915 239.211 39.2456C238.908 39.3996 238.641 39.6146 238.426 39.8769C238.21 40.1393 238.052 40.4433 237.96 40.77C237.8 41.45 237.96 42.26 237.42 42.77C236.88 43.28 236.08 43.1 235.42 43.02C234.431 42.8586 233.417 43.0649 232.57 43.6C232.159 43.8768 231.847 44.2766 231.678 44.742C231.509 45.2074 231.492 45.7144 231.63 46.19C231.86 46.79 232.41 47.29 232.45 47.93C232.436 48.2419 232.347 48.5458 232.19 48.8158C232.034 49.0858 231.814 49.3137 231.55 49.48C230.55 50.23 229.24 50.6 229.45 52.75C229.474 52.9782 229.535 53.201 229.63 53.41C230.21 54.55 231.63 55.19 231.96 56.41C232.09 57.0761 232.049 57.7643 231.84 58.41C231.629 59.0556 231.591 59.7452 231.73 60.41C232.15 61.8 234.11 61.41 234.82 62.68C235.26 63.47 235.01 64.44 235.18 65.33C235.33 66.0086 235.711 66.6139 236.259 67.0425C236.806 67.4711 237.485 67.6965 238.18 67.68C238.69 67.68 239.18 67.49 239.69 67.46C241.19 67.38 241.69 68.8 243.12 68.95C244.2 69.07 244.75 68.1 245.24 67.26Z" fill="#263238"/>
<path d="M251.4 120.39C256.59 118.45 258.02 116.29 260.58 113.9C263.14 111.51 268.71 111.9 276.8 101.33V99.72L283.99 105.48C281.891 110.524 278.777 115.082 274.84 118.87C270.58 123 263.22 126.19 261.59 123.98C259.96 121.77 261.23 119.22 259.65 118.61C258.07 118 255.85 120.06 251.4 120.39Z" fill="#E0E0E0"/>
<path d="M251.4 120.39C251.4 116.6 254.54 104.26 254.54 104.26L254.47 100.8L249.12 103.62C241.99 110.37 240.71 115.57 243.05 116.62C245.39 117.67 246.35 115.53 248.4 115.23C251.4 114.83 250.11 118.88 251.4 120.39Z" fill="#E0E0E0"/>
</svg>
