<svg width="31" height="30" viewBox="0 0 31 30" fill="none" xmlns="http://www.w3.org/2000/svg">
<g clip-path="url(#clip0_4_39)">
<mask id="mask0_4_39" style="mask-type:luminance" maskUnits="userSpaceOnUse" x="0" y="0" width="31" height="30">
<path d="M0 -1.90735e-06H30.8824V30H0V-1.90735e-06Z" fill="black"/>
</mask>
<g mask="url(#mask0_4_39)">
<path d="M23.5681 11.0526C23.5681 19.7369 27.6316 18.9474 27.6316 22.8947C27.6316 22.8947 27.6316 24.4737 26.0062 24.4737H4.87618C3.25079 24.4737 3.25079 22.8947 3.25079 22.8947C3.25079 18.9474 7.31426 19.7369 7.31426 11.0526C7.31426 6.69317 10.9535 3.1579 15.4412 3.1579C19.9289 3.1579 23.5681 6.69317 23.5681 11.0526Z" fill="#EBF4FF"/>
<path d="M17.8793 3.15792C17.8793 2.52977 17.6224 1.92735 17.1652 1.48319C16.7079 1.03902 16.0878 0.789494 15.4412 0.789494C14.7946 0.789494 14.1744 1.03902 13.7172 1.48319C13.26 1.92735 13.0031 2.52977 13.0031 3.15792C13.0031 3.78606 13.26 4.38848 13.7172 4.83264C14.1744 5.27681 14.7946 5.52634 15.4412 5.52634C16.0878 5.52634 16.7079 5.27681 17.1652 4.83264C17.6224 4.38848 17.8793 3.78606 17.8793 3.15792Z" fill="#EBF4FF"/>
<path d="M15.4412 29.2105C16.3034 29.2105 17.1302 28.8778 17.7398 28.2856C18.3495 27.6934 18.692 26.8902 18.692 26.0526H12.1904C12.1904 26.8902 12.5329 27.6934 13.1426 28.2856C13.7522 28.8778 14.579 29.2105 15.4412 29.2105Z" fill="#EBF4FF"/>
</g>
</g>
<defs>
<clipPath id="clip0_4_39">
<rect width="30.8824" height="30" fill="black"/>
</clipPath>
</defs>
</svg>
