<svg width="31" height="30" viewBox="0 0 31 30" fill="none" xmlns="http://www.w3.org/2000/svg">
<path d="M15.0824 0C6.77201 0 0 6.735 0 15C0 23.265 6.77201 30 15.0824 30C23.3929 30 30.1649 23.265 30.1649 15C30.1649 6.735 23.3929 0 15.0824 0ZM21.6433 20.355C21.4321 20.715 21.0551 20.91 20.6629 20.91C20.4669 20.91 20.2708 20.865 20.0898 20.745L15.4143 17.97C14.2529 17.28 13.3932 15.765 13.3932 14.43V8.28C13.3932 7.665 13.906 7.155 14.5244 7.155C15.1428 7.155 15.6556 7.665 15.6556 8.28V14.43C15.6556 14.97 16.108 15.765 16.5756 16.035L21.2512 18.81C21.7941 19.125 21.9751 19.815 21.6433 20.355Z" fill="#EBF4FF"/>
</svg>
