<svg width="19" height="22" viewBox="0 0 19 22" fill="none" xmlns="http://www.w3.org/2000/svg">
<path d="M9.42857 0C6.13516 0 3.47368 2.51047 3.47368 5.61702V7.95745H1.48872C0.6455 7.95745 0 8.56632 0 9.3617V20.5957C0 21.3911 0.6455 22 1.48872 22H17.3684C18.2116 22 18.8571 21.3911 18.8571 20.5957V9.3617C18.8571 8.56632 18.2116 7.95745 17.3684 7.95745H15.3835V5.61702C15.3835 2.51047 12.722 0 9.42857 0ZM9.42857 0.93617C12.1908 0.93617 14.391 3.01147 14.391 5.61702V7.95745H4.46617V5.61702C4.46617 3.01147 6.66629 0.93617 9.42857 0.93617ZM9.42857 12.6383C10.2718 12.6383 10.9173 13.2472 10.9173 14.0426C10.9173 14.4631 10.7196 14.8324 10.4211 15.0665V16.383C10.4211 16.8986 9.97521 17.3191 9.42857 17.3191C8.88193 17.3191 8.43609 16.8986 8.43609 16.383V15.0665C8.13757 14.8324 7.93985 14.4631 7.93985 14.0426C7.93985 13.2472 8.58535 12.6383 9.42857 12.6383Z" fill="#1664BE"/>
</svg>
