<svg width="30" height="30" viewBox="0 0 30 30" fill="none" xmlns="http://www.w3.org/2000/svg">
<g clip-path="url(#clip0_20_237)">
<path d="M14.0332 6.91407C10.5234 7.16603 6.94922 8.66603 3.74414 11.2266C2.42578 12.2813 1.27734 13.4121 0.357422 14.543L-0.00585938 15L0.357422 15.4512C1.60547 17.0039 3.35156 18.5859 5.15625 19.8164C9.39844 22.7051 13.8867 23.7129 18.2168 22.7578C21.498 22.0313 24.6621 20.3027 27.5742 17.6484C28.2715 17.0098 29.0684 16.166 29.6426 15.4512L30.0059 15L29.6426 14.543C27.7852 12.2402 25.0723 10.0781 22.3418 8.70704C19.6816 7.37696 16.6582 6.72657 14.0332 6.91407ZM16.1133 9.4336C19.1953 10.0606 21.1934 13.0488 20.5664 16.1133C19.7812 19.9629 15.4453 21.8848 12.082 19.875C10.0898 18.6797 8.99414 16.3125 9.39844 14.0625C9.44531 13.8223 9.46289 13.6055 9.43945 13.5879C9.42188 13.5703 9.14062 13.5117 8.81836 13.459C8.4082 13.3945 8.22656 13.3828 8.19727 13.4297C8.10938 13.5703 8.02148 14.3965 8.02148 15.0527C8.02734 16.7988 8.67773 18.4629 9.86133 19.7227C10.2773 20.1738 10.2656 20.1738 9.3457 19.7637C7.19531 18.8145 4.88086 17.1914 3.13477 15.416L2.73047 15L3.13477 14.584C4.18359 13.5176 5.70703 12.2988 7.01953 11.4727C7.78125 10.9922 9.39844 10.166 9.94336 9.97853L10.2539 9.87306L10.5352 10.1953C10.6934 10.3711 10.8867 10.5938 10.9629 10.6817L11.1035 10.8457L11.4727 10.5527C12.7617 9.52149 14.4844 9.09962 16.1133 9.4336ZM20.3789 10.1133C22.5352 11.0039 25.0605 12.7442 26.8652 14.584L27.2695 15L26.8652 15.416C25.1191 17.1914 22.8047 18.8145 20.6543 19.7637C19.7344 20.1738 19.7227 20.1738 20.1387 19.7227C22.5938 17.0977 22.5996 12.9024 20.1504 10.2832C19.9512 10.0723 19.8105 9.90235 19.8281 9.90235C19.8516 9.90235 20.0977 9.9961 20.3789 10.1133Z" fill="#1664BE"/>
<path d="M14.5605 11.25C14.3672 11.2734 14.0918 11.3262 13.9453 11.3672C13.5879 11.4609 12.8555 11.8535 12.5859 12.0879L12.375 12.2754L13.2773 13.2949C13.7754 13.8516 14.1738 14.3203 14.1621 14.3379C14.1387 14.3555 11.8594 13.998 11.502 13.916C11.3906 13.8867 11.3672 13.9219 11.3027 14.2207C11.209 14.6953 11.2207 15.4863 11.3379 15.9375C11.5957 16.9336 12.3281 17.8594 13.2188 18.3223C13.834 18.6445 14.3145 18.7617 15 18.7617C16.0488 18.7617 16.9336 18.3926 17.6777 17.6543C18.0176 17.3145 18.1523 17.1152 18.3633 16.6875C18.6797 16.0195 18.7617 15.668 18.7617 15C18.7617 14.332 18.6797 13.9805 18.3633 13.3125C17.6895 11.9062 16.1309 11.0625 14.5605 11.25Z" fill="#1664BE"/>
</g>
<defs>
<clipPath id="clip0_20_237">
<rect width="30" height="30" fill="white"/>
</clipPath>
</defs>
</svg>
